<mxfile host="app.diagrams.net" modified="2022-11-29T06:23:34.139Z" agent="5.0 (Windows NT 10.0; Win64; x64) AppleWebKit/537.36 (KHTML, like Gecko) Chrome/107.0.0.0 Safari/537.36" etag="CmyoXaKlAfHbXuswWzFp" version="20.6.0" type="github">
  <diagram id="C5RBs43oDa-KdzZeNtuy" name="Page-1">
    <mxGraphModel dx="981" dy="520" grid="1" gridSize="10" guides="1" tooltips="1" connect="1" arrows="1" fold="1" page="1" pageScale="1" pageWidth="827" pageHeight="1169" math="0" shadow="0">
      <root>
        <mxCell id="WIyWlLk6GJQsqaUBKTNV-0" />
        <mxCell id="WIyWlLk6GJQsqaUBKTNV-1" parent="WIyWlLk6GJQsqaUBKTNV-0" />
        <mxCell id="zkfFHV4jXpPFQw0GAbJ--0" value="Products" style="swimlane;fontStyle=0;align=center;verticalAlign=top;childLayout=stackLayout;horizontal=1;startSize=26;horizontalStack=0;resizeParent=1;resizeLast=0;collapsible=1;marginBottom=0;rounded=0;shadow=0;strokeWidth=1;" parent="WIyWlLk6GJQsqaUBKTNV-1" vertex="1">
          <mxGeometry x="360" y="90" width="200" height="112" as="geometry">
            <mxRectangle x="230" y="140" width="160" height="26" as="alternateBounds" />
          </mxGeometry>
        </mxCell>
        <mxCell id="zkfFHV4jXpPFQw0GAbJ--1" value="+ name: string" style="text;align=left;verticalAlign=top;spacingLeft=4;spacingRight=4;overflow=hidden;rotatable=0;points=[[0,0.5],[1,0.5]];portConstraint=eastwest;" parent="zkfFHV4jXpPFQw0GAbJ--0" vertex="1">
          <mxGeometry y="26" width="200" height="26" as="geometry" />
        </mxCell>
        <mxCell id="zkfFHV4jXpPFQw0GAbJ--4" value="" style="line;html=1;strokeWidth=1;align=left;verticalAlign=middle;spacingTop=-1;spacingLeft=3;spacingRight=3;rotatable=0;labelPosition=right;points=[];portConstraint=eastwest;" parent="zkfFHV4jXpPFQw0GAbJ--0" vertex="1">
          <mxGeometry y="52" width="200" height="8" as="geometry" />
        </mxCell>
        <mxCell id="zkfFHV4jXpPFQw0GAbJ--5" value="+ fn1()" style="text;align=left;verticalAlign=top;spacingLeft=4;spacingRight=4;overflow=hidden;rotatable=0;points=[[0,0.5],[1,0.5]];portConstraint=eastwest;" parent="zkfFHV4jXpPFQw0GAbJ--0" vertex="1">
          <mxGeometry y="60" width="200" height="26" as="geometry" />
        </mxCell>
        <mxCell id="y2SYs8ymdanMVGNIrnX--2" value="+ fn1()" style="text;align=left;verticalAlign=top;spacingLeft=4;spacingRight=4;overflow=hidden;rotatable=0;points=[[0,0.5],[1,0.5]];portConstraint=eastwest;" vertex="1" parent="zkfFHV4jXpPFQw0GAbJ--0">
          <mxGeometry y="86" width="200" height="26" as="geometry" />
        </mxCell>
        <mxCell id="zkfFHV4jXpPFQw0GAbJ--6" value="Creator" style="swimlane;fontStyle=0;align=center;verticalAlign=top;childLayout=stackLayout;horizontal=1;startSize=26;horizontalStack=0;resizeParent=1;resizeLast=0;collapsible=1;marginBottom=0;rounded=0;shadow=0;strokeWidth=1;" parent="WIyWlLk6GJQsqaUBKTNV-1" vertex="1">
          <mxGeometry x="360" y="280" width="200" height="92" as="geometry">
            <mxRectangle x="130" y="380" width="160" height="26" as="alternateBounds" />
          </mxGeometry>
        </mxCell>
        <mxCell id="y2SYs8ymdanMVGNIrnX--4" value="Use" style="endArrow=open;endSize=12;dashed=1;html=1;rounded=0;entryX=0.45;entryY=0.923;entryDx=0;entryDy=0;entryPerimeter=0;" edge="1" parent="zkfFHV4jXpPFQw0GAbJ--6" target="y2SYs8ymdanMVGNIrnX--2">
          <mxGeometry width="160" relative="1" as="geometry">
            <mxPoint x="90" as="sourcePoint" />
            <mxPoint x="250" as="targetPoint" />
          </mxGeometry>
        </mxCell>
        <mxCell id="zkfFHV4jXpPFQw0GAbJ--7" value="  " style="text;align=left;verticalAlign=top;spacingLeft=4;spacingRight=4;overflow=hidden;rotatable=0;points=[[0,0.5],[1,0.5]];portConstraint=eastwest;" parent="zkfFHV4jXpPFQw0GAbJ--6" vertex="1">
          <mxGeometry y="26" width="200" height="26" as="geometry" />
        </mxCell>
        <mxCell id="zkfFHV4jXpPFQw0GAbJ--9" value="" style="line;html=1;strokeWidth=1;align=left;verticalAlign=middle;spacingTop=-1;spacingLeft=3;spacingRight=3;rotatable=0;labelPosition=right;points=[];portConstraint=eastwest;" parent="zkfFHV4jXpPFQw0GAbJ--6" vertex="1">
          <mxGeometry y="52" width="200" height="10" as="geometry" />
        </mxCell>
        <mxCell id="y2SYs8ymdanMVGNIrnX--3" value="create (name: string): Products" style="text;html=1;align=center;verticalAlign=middle;resizable=0;points=[];autosize=1;strokeColor=none;fillColor=none;" vertex="1" parent="zkfFHV4jXpPFQw0GAbJ--6">
          <mxGeometry y="62" width="200" height="30" as="geometry" />
        </mxCell>
        <mxCell id="y2SYs8ymdanMVGNIrnX--0" value="" style="shape=image;verticalLabelPosition=bottom;labelBackgroundColor=default;verticalAlign=top;aspect=fixed;imageAspect=0;image=data:image/png,iVBORw0KGgoAAAANSUhEUgAAAXoAAAJwCAYAAACH06prAAAgAElEQVR4nOzde1yUZd4/8A84w2FmOA8wIAjKQUUQPGtQFGipa2pqdjA37LG2xy2fsoOvalv16fSrNuvpKX9t+Stbs911s7RsO3jY3BW1NEVBQvHEeYThMMyBw4zy+4O9b2ZgEBgGgZvP+/Xa1+7c3HNdF2x97mu+9zX35TY26aYWEBGRZLn39wCIiKhvMeiJiCRO1h+djggaiSfnroPKSwUAMDYa8Ye/b0Bx9cX+GM6gs3ymGk/cqcG2fdV4fXtFfw+nW5bPLcMTyy7CQ34V/zgWhN++Nq6/h0Q0ZPRL0BdXX8TqrVkAgJU3r8b4yIn9MQyn7Fgfi7EjvO2OlessePitSzhX3thPo3Kt2HAvvPdYNPRmKxavP9fr9lKTa/HI0iJknwxgwBP1A5ZunFCus2D+7wqR8EAu5v+uEACw7bkYpCaq+nlkA9MN42sBAJ9+F97PIyEamhj0vXSuvBEff6+Dp8wNNyT49PdwiIg66LPSzTO3v4g4zRgAQPOVZnx0YBN+PH+wx+2svHk1boi7SXyt1Zfjtd3rUWeuEY/9KuUOLJ6yzO59O45uw9c5X4iv/RWBeHreemj8wq/ZljMuaBvRZG1BtMYDQFvp40xpAy5pm7FithoA0GxpwRt/02LrXp343ndXR+GWFF/x9S/FDR3KJUJ74Wq5w/4d1exTE1XY+J9ROHbGiN++XdRpW4aGq1jzf4uQnWcU2/GQuwEAwiFH/odJ4ns/+lY3aO4JEFEblwe9EKgqT1+s//wpFFdfhL8iEPelrsSZivweheqvUu4AADzwwRIAbTdx/zNzDV756ncAgGkxabh94p0dgr29/8xcAwBYs+2hXgd7e6M0XvCUueGSttnu+C0pvjA0XMWDGy8iO8+IHetjcf+tahzON+JceSN2rI9FRLCn+HMhnPe+Nkas+QvHSquaMPOBAgBtwd5TQlsG0xXM/12h2P6K24KRnWfE1r06bN2rc3mNnoj6l8uDfsnU+xCoUuOjA5vEVTR15hq8s+e1HrfVPriLqy+ioq4UPt6+8FcEos5cA7VPMABAZ6jqtB1/RSB8vH1haKh3ecinJqrwyB2h0Omt+OJgrd3P2t+k1dZYEBHsidBAGWYkqBET5oVt+6qRnWcEAGTnGfHZgRosywzCjAQVzpU34t6MIADAxs+0vR7rmiWtF4d1fyoVx5SdZxT77yvTk+pQWumF7JMBfdoPETnm8qAP9glBjVGHMxX5vW7LUbkFaC25CLLPHkBq/C34TcZj+E3GYw5n9nXmGmSf/QcWT1mGDx/8rNclm3C1HF++GCe+/kdOvV15RKA3W+1W4tiec0OCD5qsLTiUb7B7z6F8A5akB0IT2Fpa0QTKUVrV1Oswjg33gp9C5pK2umvHa8cxNtqIj76KwOtbR12XPomoo35ZXtkdjkpAQGvt38e7raZdZ67Bs9tXiz9bPGUZFk9ZhkOF/8TmH94Wz/s65wt8nfMFpsWkYUX6Kmxc9r7T6/eltpyyryx+unXZ7I7XjmPvuz/h4VcSca5U0c+jIhp6XL7qpspQCZWnL3y9/XrVjq+3H1SevjhVcrzbQfzKV7/DAx8sQaG2AKNCYuGvCOxwzo/nD+LhD+/FH/e/BQ+5B5IiU3o1TmdpaywOV+rckOADT5kbtDUW8ZifQobYcC/xtSZQLt4w7a5z5Y3Qm60d2roejuT6w0dpRWhQ03Xtl4hauTzov8/9CgDwcObjYtD6KwLxyKynHQZvZ+ob9DA21SPYJ0Q8ZruSpzPdrcd3p7bflw7nG6HTW7EkPVBcf5+aqMKS9ECcr2gUV+YcyTchXC3HHWmt9e2nloaJq3gE7Vf9CDddfbzt/+/debAOaj8ZXn0oQjyWmqjC5idG2p0nXBQigj353QAiCXB56aa4+iJ+v2MNnp63HhuXvQ+gbXmlELxC+cRjmIf4vvWLXgcAseRSZ67Brp+3Y0X6Knz44GcAgEJtAQ4V/hOjQmLF97VffimcJ6zKATo+csF2TM4s+XSFc+WNmPl0AXasj8UHa9qCtn29//XtFYjWeGDFbDVWzFajXGfB2g9K8bv72u5bCDdxV8xWI//DJDRbWvD+15VYlGZ/Yd26V4cL2kZs/M8ocdmksLyyvbXvl+K9x6LtxsbllUSDkxsfU0x97anlF7AkU4s1b47lyhuifsBvxlKf01Z7wlN+FffeVt71yUTkcsOCQ6PW9/cgSNpOFfrCR2nFHbdcxm/vLELCSCP+nh3S9RuJyCVYuiEikjiWboiIJI5BT0QkcS4Nev8APm+ciGig4YyeiEjiGPRERBLHoCcikjgGPRGRxDHoh6B3V7c+62bH+tiuTyaiQY9BPwjEhnth72tjGMxE5JQBu/EI9R1Hu2ERkXRxRk9EJHEDdkbvo/LD8qxVKCstBgCMT54MAGgwm/HJ1k3QasvEc1PTMpGROU98bXuO0E5V5WUEh4QiKCgEp04eE9ssKb6ILR+93Wlb7X8umJy1CokL70LNhUJ8uWal07/nu6ujcEtK29aIzZYWvPE3Lbbu1WH5TDWeuFMj7iYVDrn4HHmg7fnwseFeeO+xaJwpbcAlbbO4MYltW476crTX7VNLw7AkPRD/u1OLRxdqxM1L2p/b2eYm7ft05d+KiJwzYINeIITxCxseh0YzHPctX4XZcxaL4ZuYOBFR0XF4YcPjANouEIuW/Bpbt2wS2xkzNgn79+2GWq1BXHwCystLsH/fbtyYfhsSEyciL+84Fixchri4BHzwxz/YXSSyVqx2GPa99dTSMKSO88Ern1bYBaNg614dtu7ViUGuN1uxeP25Ttu7JcUXhoareHDjRWTnGbFjfSzuv1WNw/lGnCtvFINaCOnO+Hi748klYWJgv7s6CqnjfLB8phpb9+rE95dWNYnjEc5pH/JE1P8GfOnGdkat1ZZBp7sMhVIJH1XrnrR5ecfx6SfviecbjHqUlRZD4a2CUtW2o1R1dSVO5bTO5GVyOU7l/GTXj0YzHHFxCTh8eL/4acFg1ONkzk9Qq0Oh0Qy3O//Ylk3YsjC9VzPUaI0HmqwtuKB1zSbj5ToLlr10Htl5RgCt+9L6KIchNLBn1/P2s/Ij+SYArXvVAsAojRc8ZW7icUfn2HLF34qInDfgZ/TdkbViNSJH2O972mA22702m0wwGPUAAGuzBTrdZfj5t+12pFaHQuYhR0bmPLvSDQBYrBao1aF25SJX+HR/NSaPVuGDNSMdljx6Sm+24lx520Wjr266CnvUTk9QisemJyjRZG3BoXxDn/RJRM4b9EGftWI1NOER+GLHVuTlHQcAsQTjjP37diP74D5XDrFT2XlGTPvtabE088y9YXjm3rABvzfr5RorDKYrGDvCW7xnIFyohE8TRDRwDOqg91H5QaFUQlteKoa8s3S6y7A2W6BWa1w0uu4TNgoXAt92pjwQ3ZEWAB/lMPFeABENbAO+Rn8tBqMeZpPJrma/YOEycYVOT2i1ZSgszMf45MlITcvs8vzJWauQtfMA5m/c3OO+OhMaKIOPchi0NRa74+fKG6E3WxER7InURFUn776+PGVuGKXx6ta5wt9qyfvb4R85sus3EJFLDeoZPQB8+80O3Ld8FR57onXr2+rqSmQf3IeJE2f0uK1dO7cBQIc6fWdLLHtrx/pYjB3hbXfM0ZJHAFj7fineeywaH6xpC8qelnja93dLii/yP0yCoeEq1vzfom7Pzl/fXoHpCUqx1NTV+M26SlyxWOAdEIjw5EmoK7nY7TETUe+5dM9Y/4Bw1NWWu6o5GqDeXR2FyaNVHS4O11piOX/jZvhFRuPnj99D/u7PrveQiYa0QV26of7haAmlcNzRctGEeUvgFxkNfcklhjxRP+CMnnpMuGkcrrYP/HKdBQ+/dUlc4jl8whSkP7UBHgolSn7Kxr6Xn+2P4RINeQx6IiKJY+mGiEjiGPRERBLHoCcikjgGPRGRxDHoiYgkjkFPRCRxDHoiIolj0JNLrJvwKNZNeLS/hzEkPLU0DPkfJmHva2MQG969B8s5a92ER7EyfqlL25wVnoZdme9hV+Z7mBWe5tK2yTEGvROmxaThvQc+xa9S7ujvodh55vYX8fLSt+GvCLyu/a6MX4pRqhH4Y8Gfr2u/g0VsuBf2vjYGO9bH9vdQeuzL4n24NTzNZWE/ISgBD8YvxTu/fIIF+x7GnvKDLmmXrm3QP72S+tes8DTcGp6GV3Lfg7aBe8VeD69vr7huG9OcqM7HB2e348H4pfi5Og8nqvN71d6koERUmCtxuOqEi0ZI3cEZPTlN463GfTEL8H35wV4HAA1ce8oP4rS+EFkxi6CSD+xNccixAT+j91cE4ul566HxCwcAGBuN+MPfN6C4uu2Z5r9KuQOLpywTX2v15Xht93rUmWsAtJZa7kv9D3x+9M+YlTRPbKtQW4BXvvqdXX8rb16NG+JuEl83X2nGRwc24cfzBzv8bPGUZWK/tuMSxnyh8hwq6krEc2zbEs4xNNTbjeGZ21+Ej7ev3fgd/Y6HCv+JzT+8jRFBI/Hk3HVQebVtSLJx2fsdzuvs92v/NxDa+y53F8L8I8VzHf3dkwLGAAB2l+yHI4mJEzF77mJ8+/cdmDwlTdzXt7q6Elu3bBL38AWA1LTMDnv1NpjN+GTrJqjVoZg563YcPXoQN6bfBgDY891OTJuejqCgEJw6eUzcSwDouPmMo/0EhAeuAcCB19eh7MRRh79DV55aGoYVs9V2x4R9ApbPVOOJOzXwkLsBAMIhF7detD0PaH3E8+gIb/zPF5fxu/vC4ePdOgezfb5/+75+KW7A4vXn7PpePlONR+4IxcffVWFRWqD44DlH5zraD6F9n4Ivi/fhmaSHMSN4Asstg9CADnohdIxN9Viz7SHUmWswImgkbp+wBO/ufR1Aa3BNHjUdf9z/ll2A/vfijXbBJJd5YnnaQ9hxdBu+zvlCDM5fpdyBr3O+ANAaprZttbf5h7ex+Ye3MS0mDSvSV+Gr438T3+vIDXE3wdhoxPrPn0Jx9UU8c/uLWDBpKc5U9Gz2K4SzMHYAWJa6EtNi0vDj+YNYvTULQOcXCcEzt7+IMP8IcTzC3/flpW93eM/iKcug1ZdjzbaHAABPz1uPZTf8h91F4YbQCahr0sNobXA4bj//AKAFuOnm22A2mfDChseRmDgR8xbcjfEpk8W9eR3t+5u1YjUUSiVMRiNiYsdAJvfAjBsy8K8D32HGjAzM/dWd2L9vN+LixiEgIAhA69aSy7NWAQDeemM9DEY9NJrhuG/5KixYuMzuYuAKy2eqsSwzqNMNYLbu1WHrXp34tE+92dohbG2Fq+V49cEIsb2nloZhWWYQls9UY+tenViyEdrrjKfMDY8sDLVrZ8VsNZ5aGiaOc8f6WEQEe4rbQQoXpezTBocb3xTWF6HCXIkoVbgTfynqbwO6dLPshv8AALy3700xhIqrL4ohPyJoJMZHTsSxC0fEYK4z12DXz9vhIfdAUmSKXXu2QZlbkgNjoxFh/pHiz8P8I9FsaUZFXZlLxq/Vl+P3O9aIF5sqQyVUnr7w9fbrdhvTYtIwedR0HCr8p91FZVv2ZocXo2u1ExU8Ct/l7hLHU1x9Ed/l7kKgSo3RYfabqRdqC/Ds9tWoM9egzlwDQ0M9fLx9xRu9KrkSgXI/5NadhdFictinWq2Bt0IBs8kkzqiFvXkFqWmZ0IRHYPeuv4ghL+wFbDaZYDDqW9vxVuDwof3Q19VC5iFHSfFFnMo5BoVSidraagBAxszWTwS2nxZiYsfAW6GATqe1G1vZiaP49N65+PTeuU7P5oXn8rff+tFZzZYWvPJpW/1daLez5/9fi+3F51C+AYaGq4jWeABovTnsp5ChtKpJ3DjmcL4ROr21076MFhNqLHok+cc7Xb5RyZVI8o+/5j8z1DcG7IzeXxEIH29fVNSV2pULbIX5D4ebWwtyS+w3Bj9TkY8ao84uxLvj+9yvMD5yItYvet2uzOIsQ0O93SzZtoTS3ZUxap9gAOjwO/aU2icYzZZm5Jbk2B3PLcnBbUkLxH4EVYZKu9ftS1wqmTf8Pbu+YFmsFhw72vY3jIkdA5mHHPq6WgBAXNw41OtrUXTpvHiOUqWCwluFstJiAEBAQBCqqytxKucYxqe0lmSOHT0IpUoFD7kHzp/7BT4qPwyPGIGgoBBxW0mhf9tPCq70xcFa3DbZT9xSsadbO7bXftMW4ROBq7Xfgzg7z4gZCSqo/WT47pi+6wZ6SCVX4qUJjyNMEYJXct/j/Zx+MGCDvj8UV1/E6q1ZYvnnNxmP4TcZj9l9EqBWRmsD6po6DwUheLXlpXYhq1ZrYG22QKe7LM7cy0qL7er106bfDJmHXAxw23PUao14YRifMhkymQd0usuIio6Br18A9u/bLZaE+tq58kbMfLoAQGspZMVsNVbMVne67+9Aoq2xYOwIb7s9iP+RU9/lharGou/xbNxoMeG/fnpRDPz5IzKx4cT/OjVucs6ALd04Khe0V1FXhpYWNyRFTrQ7PjosAYEqNSrqSpzu+9ntq7Fm20PQ6ssxPnKSU+24gs5QBQAdZtzOtOOonJUUmQIPuYfYT3d19VFemJULZRVBQEAQzA1GmIyONyLXaIYjLi5BvBgI7eh0WvHiYRv612rrelq8/hwSHsjFL8UNGB3h3edfZOqN1EQVJo9W4aNvdUh4IFf8z7UuTkKprsx02el+jRYTcuvOIlDux9U719mADXoA2J//LQJVavxn5hrx2IigkfjtzKcAtM7AK+pKMXnUdEyLaf2Gnb8iEAsmLUWNUYfsswd61b+vtx9Unr4dyhgVdWVotjT36gLg6EL2zO0vIk4zxu68H88fRFHVBdw+8U7xdwTabsbaqjJUOqy3A23lrNuSFmBEUOssbkTQSNyWtABFVRecKlEdunwCYYoQxPlGdfiZWh0KmYfcrjbe2Qx+eMQI+Kj8xBunOt1lu3as1macP1dgF/rAvy8a/67jF106j3p9LZJTpsJH1XVJafiEKbj307/j3k//juETpvT4d3dEqH3rzVZxO0WgY6lkoBBq9t0R5xuFMEUIiozcQW4wGtClmx/PH0RFXRmenLsOHz7Yuqm0sMxP8MpXv8PKm1eLZRbA8bLJ7nAUtO2XJwKtF5hthzZjRfqqDuPq7H6CI9sO/T88OXeduBzyUOE/UWWoxKgQ+29QOvodDxX+s0M4b/7hbQT7hHQ4b/MPb4ufUp65/UWsX/T6NX+/7sqtLUDDlSbMH5HZoe7q5x8Aa7MF588ViMeE8srJnJ8AAAajHv/84TvMW3C3WFffv2831GqNuOJm2vSb0WxphsloRFR0DOAG6OtqodEMh1odisOH94ttff7Zn3Df8lV2NXqhzb4o57y7Ogq3pPjaHXO0jBEA1r5fivcei7YrlfS0pt++P2G5ZrOlBW/8Tdvten52nhGfHajBitlqu+WeQMd9fwXzR2Tyi06DGPeMpV6ZFZ6GB+OX8ibbICIspdy2r9ruQtPZEktX/n+8Mn4pkvzj8dyJN7ny5joa0KUbGviEb00+k/QwJgR1LBnRwKMJlItf4nJ0/JK2WTwmPJvGVd9+LjKWI9onAjOCJ/S6Leo+zujJJYQnV3I1xeDgqOzkqAS0bsKjKDNdxuaz213W98r4pbg9MgMA8M4vn/CbttcBg56ISOJYuiEikjgGPRGRxDHoiYgkjkFPRCRxDHoiIolj0BMRSRyDnohI4hj0/+YfORJL3t+O+Rs3d+v8yVmrkLXzAJa8vx3+kSO7fgMRUT8ZUkE/f+NmBjMRDTkD+umVA9mxLZtwbMum/h4GEVGXhtSMnohoKJL8jH74hClIf2oDPBRtO9os/N8t4v8u+Skb+15+Vnxt0lUi89mXETk1FQBgrLyMvS+sRV1J63PmJ2etQuLCu8Tzay4U4ss1Kzv06x85EjOffxWqkFDxWPu2uiM1LRMzZmTgm28+w5w5S+CtUAAATp08hl07t4nn+aj8sDxrFYKCQsRjtucsWLgMwyNGoKryMsaMTUJ1dSV+PHIAs25bCGuzBZ9s3QSttsxhWxarxW7z7v6QtWI1gNa9YuctuBtyWesm1o6eNZ+1YjUiR9iX50qKL2LLR28jNS0TySlTUfBLLlLTMtFgNtv9bdu3176t9n93oO2fic7+WSDqb5IP+rITR/HpvXMBtNboPVS+1wzbyKmpqLlQiC0L08WLxE2PPyf+CyyUbIQg78xNjz8HANj5aFaPgt0Rb4UCty+4RwzbBQuXYey4ZJw/94sYvrcvvAf//OE78XVqWiYyMudBp9OKwRUUFAKzyYQvdmzF7LmLMW16Or7a9WfMmbME06bfjF07t4m7PBUW5mPTO6+Ibc1bcDcA9EvYCztTWS0WzJ67WPw7ZK1YjeSUqTiVcwwGo14cu7nBiLfeWG93TNjSUK3WQKFQYfz4Sdi/bzduTL8Nty+4B3u+24lp09OhVmsAwG63qxc2PA4ASEyciHkL7rb7mxINBpIP+p6ynZWVnTgKo7YcHipf+EeO7HZg+0eOhIfKF83G+l6HPNBxRn3+3C8YOy4Zfv4B4jmffvKe3XvOnyvAjBkZYnAJ7Rw72vpIWJlcjrLSYlTr7LdJnDb9ZpgbjNi/d7d47FTOMSSnTEVM7NhuB72jTzS28nb+tdv3OIQtBGV+cru/Q21tNRTKtk9qs+cshrnBiK1bNolbFbbf0jAgIAgyuRzf/n0H/PwDIJfJcerkMZSVFtltUzh7zmLodJex5aO23bdiYscCaN3hyhbv19BAx6DvA3UlF3Hp0A9IXHgXsnYecKpk01PCbFMoaTgibLitVreGr+1+roKAgCAEBYV02I4PAMym7u8IVFdyEZ89tLTb53eHtrxUDHlho3Bhz1hha8HCwny7/WiFi6G+rlb8ZCC0s2DhMjSYzfjxyA92e9MKbXkrFHh+3ZtiWw1mM7b8v/8RS1xEgwWDvo8Is7yEeUsw6f6HsfB/t6DZbMKB19eh7MRRl/YlhLy2vFScgQqlB2dUV1fazYr7W0zsGMg85OKnEaBtll9WWgygdeYOt9ZPOwIflR+SU6aiXl+LokvnxfcIe9YGBARBp7sMrbbMbm/a8SmTIfOQ44sdW/v1vgSRqzDo+1j+7s+Qv/szMfDDkqe4POiFWattEDqrtrYaanUolCpVr4LelaUbtVojfhppO2ZfknFkfMpkBAWFoKT4IgxG/TU3Fw8ICBI/HRBJzZAKepOuEn6R0QhPntSnZRRHFOrWFSzmdjVxoPUmceCoOKdXbQg1YyHwhdm8sEKnJ3488gPi4hKwaMmvezWrd2XpJiAgCOYGI0xGo3jMzz8A1mYLzp8rEI/J5HLxPoKwWqm6utLuPWazEUWXztuFvlDSET4dCPc3Jk9J69aMXlh1cz1KdETOGFJBv+/lZzF/42ZMXfkopq5s3eO0/fLKrtguvQQAhIQia+cBXLFY8PPH7yF/92cOl3Ta/tyWcOO2N/LyjiMmdiwyMuchI3MeACD74D6MGZvU47a02jJ8snUT7lu+yq5O319LLG1D2PaiExc3zi78hb/B+OTJGJ88GQ1mMz7//GPMnrNYXHETFzdOnLX7+QcALYBOdxlR0TFQKFRi2UerLcO33+zAvAV329XoO/sbmHWVuGKxwDsgsF8mEURd4Z6xRC4wf+Nm+EVGO7yYE/U3fjOWqJcS5i2BX2Q09CWXGPI0IA2p0g2RK9mW6HpaAiS6nli6ISKSOJZuiIgkjkFPRCRxDHoiIolj0BMRSRyDnohI4hj0REQSx6AnIpK4Af2FqVnhaXhk7H0AgHd++QR7ynv/dEYioqFmQAf9nvKD2FN+ELPC0/Bg/FLommpwojq/v4dFRDSoDIrSzeGqE6gwV2JSUGJ/D4WIaNAZFEFPRETOY9ATEUkcg56ISOIGRdAbLSbk1p3FjaFToPFW9/dwiIgGlQG96sbW5rPb8XN1Ht6e9ntUmCvx3Ik3YbSY+ntYREQD3qAJ+nUTHkWg3A8PZD/DgCci6oFBUbpRyZUIlPsht+4sQ56IqIcGRdATEZHzGPRERBLHoCcikrhBEfRxvlEIU4SgyMiNx4mIempAr7qxfXrlVyX7+fRKIiInuI1NuqnFVY35B4SjrpazbiKigWRQlG6IiMh5DHoiIolj0BMRSRyDnohI4hj0REQSx6AnIpI4Bj0RkcQx6ImIJI5BT0QkcQx6IiKJY9ATEUkcg56ISOIY9EREEsegJyKSOAY9EZHEMeiJiCSOQU9EJHEMeiIiiWPQExFJHIOeiEjiGPRERBLHoCcikjgGPRGRxDHoiYgkjkFPRCRxDHoiIolj0BMRSRyDnohI4hj0REQSx6AnIpI4WX8PoLtmLHgO0eNvFV9XleRi75ZH+rTPWeFpuC9mAdYeexXaBp14fN2ER1FmuozNZ7e7tK9Hxt4HAHjnl0+wp/ygy9omoqFtUAR9QuoyRCSk49Dn/42i0/ucbsdbpUbm/W/BJzASJ/e/j/zsbZ2eOyEoAQ/GL8UHZ7fbhTwAfFm8D88kPQwALgl7oS8GPBH1hUFRugmPm4HairO9CvkZC57DvEc/hb7yUpfnarzVeCxhBb4vP+gweE9U5+ODs9txa3gaJgQlOD0mwaSgRFSYK3G46kSv2yIiam/AB723Sg0vpX+v2khIXYagiLHY/b/3orr8ly7P/82Ye1DXpMdfLn7d6Tl7yg/itL4QWTGLoJIrezU+IqK+NChKN9cyM+sdAEB54WEkZzwEALBam/DTl6+KnwDys7dds0xjS+OtxijVCHxyfheMFtM1zxVKODOCJ7DkQkQD1oAN+vY3X30CI3HP8wcAdAzy4MgkeCn9sfPNxQCAzPvfQtLNK1BZdBINRl3Hxq8hKWAMvId5QtdU0+W5hfVFqDBXIkoV3qM+iIiupwEb9Id3vYTDu14Sb6A2muo6XWVjqCnBvo8fE0O9uvQXhMVOh/kpgp8AACAASURBVJcqoMdBH6UKR4W5EoX1RV2ea7SYUGPRI8k/Hiq5sstPAI6o5Eok+ccjt+6sU+8nIurKgA36/jJcGXpd+lHJlXhpwuMIU4Tgldz3cKI6/7r0S0RDz4C/GXu9lZku9/g9NRZ9j2fjRosJ//XTi3gg+xlkxSzCugmP9rhfIqLuYNC3U2QsR5giBHG+UV2eq5IrESj3c+riIDBaTMitO4tAuR9X7xBRn2DQt5NbW4CGK02YFJTY5blxvlEIU4SgyFh+HUZGROScIVGjD9DE4ZZlG+Gp8BWPJWc8hOSMhzrcyNU26HDBWIwbQ6dgd8n+Dt+KtTV/RCa/6EREA57b2KSbWlzVmH9AOOpqB//sVuOtxquT1+Jfl492+oiDWeFpeDB+qUtupK6MX4ok/3g8d+JNrrwhIpdj6cYBbYMOn5zfhdsjM7AyfmmHnwvPpvm+/KBLVssUGcsR7ROBGcETet0WEVF7w4JDo9a7qjEvbx80Nhpc1Vy/umAoRnVTHW6PzMCRqhMwWs3iz34z5m7k1PzisqdXXjAUQyVXYHnMAtwzah6qm+pwwVDskraJiFi6ISKSOJZuiIgkjkFPRCRxDHoiIolj0BMRSRyDnohI4hj0REQSx6AnIpK4IfGsm8EsNS0TGZnzxNclxRex5aO3+6y/9s8FajLX4x/b1qBWW9hnfdpq8VTCsPBVyIuPwvvwx+LxzGdfRuTUVJT8lI2KU8cx6f6H0VBbg70vrEVdycXrMrbuWPPaDYgeHYBP3zmJI3tK+3s4LvPrNSlIm9P2RNdaXSM+fPVnnMnp2cY+XZm/cTMCR8Uhb+dfAQCJC+9CzYVCfLlmpXiOVZMA021Pw2fHk3Dv4cZCQxWDfoDLPrgP2Qf3wUflh+VZq/q8v1ptIT5/43YArds5hsVO7/M+bZlmPgkA8Dr+md1xfXkpIv/93/qyIlyxNF/XcQ0U8+8fg9l3xeHI3hL8aWPOdetz+sxIHPymqNd9rnntBoyZEIyKIgPWrdzf4ecmXSX8IqNh1lUCAK5YLB3OkWnzMUx3EfV3b4LvX1Yx7LuBpRsaMBpm3A9r2Diovl4Pt6auH+7WbKwfULN5qYodFwiDvhk/7nf+E8r8+8dg099vh0IlR6PZ2qP3mv4d+raUe/8Ad0MlzOm/dXpMQwmDngYEqyYBjZPuguLAu13O0Ew6HZqNxus0MvIL9OrV+6fPisDN80fi278WYu8X57v9vmt9cnNrMkFxYBMsI6ehOS69V+MbCoZU6SYxcSLmLbgbcpkcgON694KFyzA+ebL4uv05WStWAwAKC0+LtXOL1YLdu/6CvLzj4nlCqSUoKEQ8Vl1dia1bNsFg1He7v57IWrEakSNGiq/379uN7IP7nGqrK8Km7T6BkeKxk/vfR372NrvzZix4DtHjb+3w/qqSXLvN3i0jp2BY1QXIi4857O/Ylk04tmWT+Pqzhzo+VXTD5gwAwPn8GrGebLVcxbd/LcSXHxcAaA2dex9JxrEDZVBrFBgzIRgA0Gi2dqirC2UGgaNyg1BKkcnb5ky2M9Zfr0nB9JmRdmPorPwyOkWNB9ZOQoDaq8OY2o8lbU6U+Du2H3v7doA+rKnfPwYzF8Ug+7tiTLwxXOzT9m91ZE+pOLbpsyKu2d6+l5+1e/3pvXM7PVemzYf84o9onHgn5MXHHH4KtL23077toWTIBL1wU/PUyWPYtXObeCw1LVMMw6wVq6FWh+KDP/4BWm0ZNJrhuG/5Kqx65Bm7gI4cMRIKpRJvvdH64M/lWatw0823oejSefGcxXfeDwB46431dsFuq7v9dUW4qJhNJryw4XEAbRc1AC4Pe+GGbX11EXa/ex8AICF1GZIzHoKfOhqHd70EoDXkIxLScejz/0bR6X1277MN+RZPJSwjpsDdWNWtks21hEX5ICDYGx++9jOO7CnFhs0ZmLkoBpXlRrsQT5sThVpdI954KhsA8MDaSZhzV7x4zobNGXbtCBeIV/98mxiYwg1K29q1cDO2p4T2G8xWvPFUNs7k6DB9VgRumhuNI3tKsfHpQwC6V6O/95HxACC244z2N18B4InXU8X/bfs7y+TuyLxjlHhMeO+v16T0+X0Ej7M/wJz+W7TIvXv9z46UDYmg12iGY8aMDJQUXxRDHrAPwMTEidCER+BfB76DVlsGANBqy3D48H7cmH4boqJjxBl7+5l5WWkx4uISoFSpYDDq4aPyg0KphNlk6jSse9JfV8anTIbCW4XPP/uTeCwv7zgmT0lDXNw4lwf9mGmts+mfv/0f8Vh+9jaEx81AUMRYeKvUaDDqoAwIQ0N9JSqLTgJovdFbX10EL6W/eA4AtMi9cdUnBF7H/9brsbWf3f78r3LMvisO8Ulqu6BvPztvNFngpZRjdIoao5PVCA5X4sjeEvE9R/aUIj5JjekzIzE6WQ0AGDclFBVFBpeE2Zy74gEAX3x4Wgxn25lwd41OUcNLKUejydKr2fufNuaIv9eGzRnwUsqv+YnANvjP5uowOX041BqF0/13l7uhCi1eKljDxsGj8ECHnw/lWbytIRH0anUoZB5yFBae7vQcP/8AWJstOH+uwO74+XMFmDEjA37+3Z+lGYx6nMz5CRmZ8/D8ujcdlmxc2Z9arYG3QoEHf/Nkh59VV1fCR+XX7U8H3aEMCEN9dVGHJZflhYcxZvrd8FIFoMGog6m2AgFh8QiJShZn9L5BUag4d0QMeQC4qgpBi5fKJWNrMFtRW9Uovq4sN8JqudohdPQ1jXavbUN/WkYErJarOJtrH2pCgPkHeSEg2AveChlOH3V+Y3iBEM61VQ29XpJ5JkeH00cvI21OFN7fs6DPSjY0uAyJoO8PwrJIoYTy2BPr0WA245Otm8QZvCv1ZdvO0usuIVp2K25Y9HvcsOj3AFpr80JpR+BurIRbY9/eXNVpzV2fJBHCbFwo8zzxeqrDexBS4dZkgruhqr+HMaANiVU3Ot1lWJstUKs1nZ6jr6uFzEOOmNgxdsdjYsdA5iGHvq7Wqb7z8o7j/7z0NL7YsdWufVf2p9NpIfOQQ60OdWqMPWWqrYBvUBQCNHF2x8PjZqC5UY9GYy28VWqMSpmDS6e+x59fSBf/Y1ubF7hZGuBuqERz/M0uH2tIeOsnhbrqxi7ObFNX3QiZ3B3xSWq74/FJasjk7nZttf+k4MwKlTM5OrvSkat8+XEBVs39Crs/OePw95GCqz7BQEsL3I0dl2BSmyER9FptGQoL8zE+eTJS0zLF48LNWAAounQe9fpazJiRAY1mOIC22r62vLTb9fLOCKUYIcBd2d+pnGOo19di9pzFYlvXMn/jZmTtPID5Gzc78ZsA5eeOYJiHJybN/i/xWELqMgRHJuFCzjd2ZRllQFiX7bk1mSAvPgpr2DhcVbkujKbPisDMRTGorWoQV7x0x5mTOhj0zZicPlxcJTJ9VgQmpw9HVbkJX35cgCN7SlFb1YDo0QHiORs2ZyAsyseuLeGi4B/UegFwtEoHaL2X4OPnId5IFfp8+s00u/OEUlRMQmC3fx+h755c7AaL5vib4W6ohJulweHPM599uVf/rEvFkCnd7Nq5DTqdFhmZ88RlkbZLGQ1GPTa98wqyVqy2q3XbrtLpLmH1jLeibbbXfglmd/trv/wyKAh4ft2bdu0ZjHps3bIJy7NWdajTt19i6R85Eh4q307HHjUuE1Pnr4VM5ikem/1g678kl059j8O7XkLR6X2ory7GLcs24p7nW2+AWa1N4uoaAGgw6pD7w0eYOn+teI7A0WMV5BePonHSXWhK+pXdow96KkDtZbc6pOBElbhipbvO5Oiw9p7vsGFzBh54ehIeeHqSw7Y+fecUHlg7STyn4EQVzufXYHJ628X2y48LEDsuUFwO2Wi24tu/FGLm4hi7Pr/8uACV5Ubc+0gy3t+zAEDbjWVbR/aUIiRchdl3xXU4z3Z1kJei7V/t9ktM+0P7i2BYlA/e37OgV2OzahJgGTkNyu9e7XTFjfCNapUmHMMnTEHZiaPO/gqDGveMpT4hLKWsOHfEribf2RJLoPWbsU3jfuX019q7szqEpEF4JpK7sQqqrzd0ep5/5EjMfP5VeKhUOPD6uiEb9EOidEPXn2/QCAzz8Oz0uKm2osPPvI5/BndDJerv3uTSEg5Jj2nmk7jqEwLFgXeveV5s5hyoQkJxOS9nyIY8MIRKN3R9FZ3eB6W/BskZD3X4Zqyjb9ACrbV6n51rYVj4aq9LOCRdVk0CrqhHXvOTX8K8JZh0/8MYJpcjb+df7b5VPRSxdENEJHEs3RARSRyDnohI4hj0REQSx6AnIpI4Bj0RkcQx6ImIJI5BT0QkcQP6C1OzwtPwyNjWHYze+eUT7Ck/2M8jIiIafAZ00O8pP4g95QcxKzwND8Yvha6pBieq8/t7WEREg8qgKN0crjqBCnMlJgUl9vdQiIgGnUER9ERE5DwGPRGRxDHoiYgkblAEvdFiQm7dWdwYOgUabz6nnIioJwb0qhtbm89ux8/VeXh72u9RYa7EcyfehNHiePswIiJqM2iCft2ERxEo98MD2c8w4ImIemBQlG5UciUC5X7IrTvLkCci6qFBEfREROQ8Bj0RkcQx6ImIJG5QBH2cbxTCFCEoMnLjcSKinhrQq25sn175Vcl+Pr2SiMgJbmOTbmpxVWP+AeGoq+Wsm4hoIBkUpRsiInIeg56ISOIY9EREEsegJyKSOAY9EZHEMeiJiCSOQU9EJHEMeiIiiWPQExFJHIOeiEjiGPRERBLHoCcikjgGPRGRxDHoiYgkjkFPRCRxDHoiIolj0BMRSRyDnohI4hj0REQSx6AnIpI4Bj0RkcQx6ImIJI5BT0QkcQx6IiKJY9ATEUkcg56ISOIY9EREEsegJyKSOAY9EZHEMeiJiCRO1t8D6K4ZC55D9PhbxddVJbnYu+WRPu1zVnga7otZgLXHXoW2QSceXzfhUZSZLmPz2e0u7euRsfcBAN755RPsKT/osraJaGgbFEGfkLoMEQnpOPT5f6Po9D6n2ogal4mp89dCJvMEADSZ6/GPbWtQqy10eP6EoAQ8GL8UH5zdbhfyAPBl8T48k/QwALgk7IW+GPBE1BcGRekmPG4GaivOOh3yAZo4TJr9GE7/82P8+YV07HxzMZob9UhdvA7eKnWH8zXeajyWsALflx90GLwnqvPxwdntuDU8DROCEpwak61JQYmoMFficNWJXrdFRNTegA96b5UaXkr/XrVRqy3E52/cjvzsbQCABqMOF3K+gbdvCEKikjuc/5sx96CuSY+/XPy60zb3lB/EaX0hsmIWQSVX9mp8RER9aVCUbq5lZtY7AIDywsNIzngIAGC1NuGnL1/t8hOATOYJpb/G7pjGW41RqhH45PwuGC2ma75fKOHMCJ7AkgsRDVgDNujb33z1CYzEPc8fANAxyIMjk+Cl9MfONxcDADLvfwtJN69AZdFJNBh1HRsH4KeOhtXaBFOd1u54UsAYeA/zhK6ppssxFtYXocJciShVuFO/IxHR9TBgg/7wrpdweNdL8FapkXn/W2g01XW6ysZQU4J9Hz8mhnp16S8Ii50OL1WAw6CPGpeJiIR0h3X/KFU4KsyVKKwv6nKMRosJNRY9kvzjoZIru/wE4IhKrkSSfzxy68469X4ioq4M2KDvK8KN2SvNTfj52//p8PPhytDrMg6VXImXJjyOMEUIXsl9Dyeq869Lv0Q09Az4m7GuFKCJwy3LNmKYhyd+/vYth0sry0yXe9xujUXf49m40WLCf/30Ih7IfgZZMYuwbsKjPe6XiKg7hkzQe6vUSF28DsM8PK95o7bIWI4wRQjifKO6bFMlVyJQ7ufUxUFgtJiQW3cWgXI/rt4hoj4xZII+dcl6ePuGdLkaJ7e2AA1XmjApKLHLNuN8oxCmCEGRsdyVQyUicqkhUaNPSF2G4MgkAMANi36PGxb9XvxZ+xu52gYdLhiLcWPoFOwu2d/hW7G25o/I5BediGjAcxubdFOLqxrzDwhHXe3gn91qvNV4dfJa/Ovy0U4fcTArPA0Pxi91yY3UlfFLkeQfj+dOvMmVN0TkckOmdNMT2gYdPjm/C7dHZmBl/NIOPxeeTfN9+UGXrJYpMpYj2icCM4In9LotIqL2hgWHRq13VWNe3j5obDS4qrl+dcFQjOqmOtwemYEjVSdgtJrFn/1mzN3IqfnFZU+vvGAohkquwPKYBbhn1DxUN9XhgqHYJW0TEbF0Q0QkcSzdEBFJHIOeiEjiGPRERBLHoCcikjgGPRGRxDHoiYgkjkFPRCRxQ+JZN4NZalomMjLnia9Lii9iy0dv91l/wqOcPRW+AIAmcz3+sW2Nw0c694UWTyUMC1+FvPgovA9/LB7PfPZlRE5NRclP2ag4dRyT7n8YDbU12PvCWtSVXLwuY+uONa/dgOjRAfj0nZM4sqe0v4fjMr9ek4K0OW1PdK3VNeLDV3/GmZzOnwXljPkbNyNwVBzydv4VAJC48C7UXCjEl2tWiudYNQkw3fY0fHY8CfdOdpAjewz6AS774D5kH9wHH5Uflmet6vP+hI3UgdbtHMNip/d5n7ZMM58EAHgd/8zuuL68FJH//m99WRGuWJqv67gGivn3j8Hsu+JwZG8J/rQx57r1OX1mJA5+U+R0n6NT1Hhg7SQEqL3EY47aM+kq4RcZDbOuEgBwxWLp0JZMm49huouov3sTfP+yimHfDSzd0IDRMON+WMPGQfX1erg1df1wt2Zj/YCazUtV7LhAGPTN+HG/859Q7n1kPBpNFjw0axcemrULBSeqMH1mJObfP6bL95r+Hfq2lHv/AHdDJczpv3V6TEMJg54GBKsmAY2T7oLiwLtdztBMOh2ajcbrNDLyC/Tq+qQurFu5H+tW7hdfH9pTDKvlKmLHBXb6nmt9cnNrMkFxYBMsI6ehOS691+OTuiFVuklMnIh5C+6GXCYH4LjevWDhMoxPniy+bn9O1orVAIDCwtNi7dxitWD3rr8gL++4eJ5QagkKChGPVVdXYuuWTTAY9d3uryeyVqxG5IiR4uv9+3Yj+2Dnm6z0hrBpu09gpHjs5P73kZ+9ze68GQueQ/T4Wzu8v6ok126zd8vIKRhWdQHy4mMO+zu2ZROObdkkvv7soY5PFd2wOQMAcD6/RqwnWy1X8e1fC/HlxwUAgOmzInDvI8k4dqAMao0CYyYEAwAazdYOdfU1r90g/hwAKooMdmEFtJVSZPK2OVOj2Sr+71+vScH0mZF2Y+is/NK+vGE7pvZjSZsTJf6O7cfuqEzSZzX1+8dg5qIYZH9XjIk3hot9OvpbOdL+IrLv5WftXn9679xO3yvT5kN+8Uc0TrwT8uJjDj8F2t7bad/2UDJkgl64qXnq5DHs2rlNPJaalimGYdaK1VCrQ/HBH/8ArbYMGs1w3Ld8FVY98oxdQEeOGAmFUom33mh98OfyrFW46ebbUHTpvHjO4jvvBwC89cZ6u2C31d3+uiJcVMwmE17Y8DiAtosaAJeHvXDDtr66CLvfvQ9A6+YuyRkPwU8djcO7XgLQGvIRCek49Pl/o+j0Prv32YZ8i6cSlhFT4G6s6lbJ5lrConwQEOyND1/7GUf2lGLD5gzMXBSDynKjXYinzYlCra4RbzyVDQB4YO0kzLkrXjxnw+YMu3aEC8Srf75NDEzhBqVtrVm4GdtTQvsNZiveeCobZ3J0mD4rAjfNjcaRPaXY+PQhAN2r0d/7yHgAENtxRvubrwDwxOup4v+2/Z1lcndk3jFKPCa899drUjodY0i4CjK5O/Q1jU6NT+Bx9geY03+LFrl3r//ZkbIhEfQazXDMmJGBkuKLYsgD9gGYmDgRmvAI/OvAd9BqywAAWm0ZDh/ejxvTb0NUdIw4Y28/My8rLUZcXAKUKhUMRj18VH5QKJUwm0ydhnVP+uvK+JTJUHir8PlnfxKP5eUdx+QpaYiLG+fyoB8zrXU2/fO3/yMey8/ehvC4GQiKGAtvlRoNRh2UAWFoqK9EZdFJAK03euuri+Cl9BfPAYAWuTeu+oTA6/jfej229rPbn/9Vjtl3xSE+SW0X9O1nnI0mC7yUcoxOUWN0shrB4Uoc2VsivufInlLEJ6kxfWYkRierAQDjpoSiosjgkpuic+6KBwB88eFpMZyP7Cnt8cqd0SlqeCnlaDRZejV7/9PGHPH32rA5A15K+TU/EdgG/9lcHSanD4dao+h0jKmzo2C1XMWhPb17HLe7oQotXipYw8bBo/BAh58P5Vm8rSER9Gp1KGQechQWnu70HD//AFibLTh/rsDu+PlzBZgxIwN+/t2fpRmMepzM+QkZmfPw/Lo3HZZsXNmfWq2Bt0KBB3/zZIefVVdXwkfl1+1PB92hDAhDfXVRhyWX5YWHMWb63fBSBaDBqIOptgIBYfEIiUoWZ/S+QVGoOHdEDHkAuKoKQYuXyiVjazBbUVvVNkusLDfCarnaIXTazyRtQ39aRgSslqs4m2sfakKA+Qd5ISDYC94KGU4fdX5jeIEQzrVVDb1eknkmR4fTRy8jbU4U3t+zoM9KNr1x7yPjEaD2wsFviiS1BHUgGxJB3x+EZZFCCeWxJ9ajwWzGJ1s3iTN4V+rLtp2l111CtOxWu316q0pyxdKOwN1YCbfGvr25qtOauz5JIoTZuFDmeeL1VIf3IPrDhs0ZCIvyQcGJKpctD3VrMsHdUOWStqRqSKy60ekuw9psgVqt6fQcfV0tZB5yxMTaL/eKiR0DmYcc+rpap/rOyzuO//PS0/hix1a79l3Zn06nhcxDDrU61Kkx9pSptgK+QVEI0MTZHQ+Pm4HmRj0ajbXwVqkxKmUOLp36Hn9+IV38j21tXuBmaYC7oRLN8Te7fKwh4a2fFOqqu18LrqtuhEzujvgktd3x+CQ1ZHJ3u7baf1JwZoXKmRydXenIVb78uACr5n6F3Z+ccfj7XG9rXrtBDHnhnkNvXfUJBlpa4G7suAST2gyJoNdqy1BYmI/xyZORmpYpHhduxgJA0aXzqNfXYsaMDGg0wwG01fa15aXdrpd3RijFCAHuyv5O5RxDvb4Ws+csFtu6lvkbNyNr5wHM37jZid8EKD93BMM8PDFp9n+JxxJSlyE4MgkXcr6xK8soA8K6bM+tyQR58VFYw8bhqsp1YTR9VgRmLopBbVWDuOKlO86c1MGgb8bk9OGYPitCbGty+nBUlZvw5ccFOLKnFLVVDYgeHSCeI8xWbQkXBf+g1guAo1U6QOu9BB8/D/FGqtDn02+m2Z0nlKJiEjpfltie0HdPLnau9us1KRgzIdilIQ8AzfE3w91QCTdLg8OfZz77cq/+WZeKIVO62bVzG3Q6LTIy54nLIm2XMhqMemx65xVkrVhtV+u2XaXTXcLqGW9F22yv/RLM7vbXfvllUBDw/Lo37dozGPXYumUTlmet6lCnb7/E0j9yJDxUvp2OPWpcJqbOXwuZzFM8NvvB1n9JLp36Hod3vYSi0/tQX12MW5ZtxD3Pt94As1qbxNU1ANBg1CH3h48wdf5a8RyBo8cqyC8eReOku9CU9Cu7Rx/0VIDay251iDPBciZHh7X3fIcNmzPwwNOT8MDTkxy29ek7p/DA2kniOQUnqnA+vwaT09sutl9+XIDYcYHicshGsxXf/qUQMxfH2PX55ccFqCw34t5HkvH+ngUA2m4s2zqypxQh4SrMviuuw3m2q4O8FG3/ardfYnq9CRdJABgzIVgcd2/HZtUkwDJyGpTfvdrpihvhG9UqTTiGT5iCshNHnfodBjvuGUt9QlhKWXHuiF1NvrMllkDrN2Obxv3K6a+1d2d1CEmD8Ewkd2MVVF9v6PQ8/8iRmPn8q/BQqXDg9XVDNuiHROmGrj/foBEY5uHZ6XFTbUWHn3kd/wzuhkrU373JpSUckh7TzCdx1ScEigPvXvO82Mw5UIWE4nJezpANeWAIlW7o+io6vQ9Kfw2SMx7q8M1YR9+gBVpr9T4718Kw8NVel3BIuqyaBFxRj7zmJ7+EeUsw6f6HMUwuR97Ov9p9q3ooYumGiEjiWLohIpI4Bj0RkcQx6ImIJI5BT0QkcQx6IiKJY9ATEUkcg56ISOIG9BemZoWn4ZGxrTsYvfPLJ9hTfrCfR0RENPgM6KDfU34Qe8oPYlZ4Gh6MXwpdUw1OVOf397CIiAaVQVG6OVx1AhXmSkwKSuzvoRARDTqDIuiJiMh5DHoiIolj0BMRSdygCHqjxYTcurO4MXQKNN58TjkRUU8M6FU3tjaf3Y6fq/Pw9rTfo8JciedOvAmjxfH2YURE1GbQBP26CY8iUO6HB7KfYcATEfXAoCjdqORKBMr9kFt3liFPRNRDgyLoiYjIeQx6IiKJY9ATEUncoAj6ON8ohClCUGTkxuNERD01oFfd2D698quS/Xx6JRGRE9zGJt3U4qrG/APCUVfLWTcR0UAyKEo3RETkPAY9EZHEuTToWbYhIhp4OKMnIpI4Bj0RkcQx6ImIJI5BT0QkcS7/wtTyuWV4YtlFeMiv4h/HgvDb18a5ugsiIuqBYcGhUetd2eCpQl+89/kI1JtkuGtWBXyUVhw6FeDKLoiIqAf6rHSz9e/Dcb5MgelJdX3VBRERdQNr9EREEsegJyKSOAY9EZHE9WnQH8n1R8xwM5bPLevLboiI6Bpc+phiR1KTa7Hx8V8AAGveHIvsk1yBQ0R0PfXpxiPvPn0akxP0DHgion7Up6UbjboJpZVeDHkion7Em7FERBLHoCcikjgGPRGRxPVZ0Kcm1yIipBFanWdfdUFERN3Qp0+v/OWSik+vJCLqZ32+jp6IiPoXa/RERBLHoCcikjgGPRGRxDHoiYgkjkFPRCRxDHoiIolj0BMRSRyDnohI4hj0REQSx6AnIpI4Bj0RkcQx6ImIJI5BT0QkcQx6IiKJY9ATEUkcg56ISOIY9EREEsegJyKSOAY9EZHEMeiJiCSOB6unpwAAIABJREFUQU9EJHEMeiIiiWPQExFJHIOeiEjiGPRERBLHoCcikjgGPRGRxDHoiYgkjkHfR+RyL0yeOgdB6uF2x339gjBl+lx4e/sAAJRKP0yeNhdKpV+P2vf1C8KM1IXwDwhBQKAG41NuhqeXwmXjJyLpkPX3AFwpPCIOsXETe/w+XVUJ8vMOA2gB0BqiiePTIZPJe9ROZWUxCk4fAdACb4USbu5uMJvq7c5R+QSiuakRzc0NAAAf30BcvWpF079fd5dC4YsrV6+gwWzElSsWAO4YM3Y68nL/hStWS4/aIiJpu25B7+MbhKTkdJSVnEHRpdOOByOTY9z4GwEAp0/9C9YeBpbJUIuC/CMdjvsHhkKtjkBxUT6amzoGqslYByHkgdYwbmlpwfnC47BYmrvfv007toEepB6OhMRUuLm5ieem3rTY7r03pN0BADhXeBzlpYVd9uXjG4QGswFWSxOuXL2CMwVHEBAQiparLV2+l4iGlusS9DKZHKNik1FbXdFpyAPA8Ih4eHkqkHN8X49DHgD0eh2g13U47ucfjMZGI7QVF2DtMrjd4O8fDLNJD23FRVy5Yu3xOIQ2DIYaXLliRbWuDP/6YTvkci8kT7gFFy+cQrWuDDK5B8an3Izy0kJoKy4CaP00ccONi7r9aSI1fYnd61GxE5B36gDq9dVOjJuIpOi6BL1/QCiUSn9cOHey03M8Pb2hCRsJbcVFNDmYdTtLJveAj28gDPU13Qh5QC73hELpj5rq8h6HvH9ACMaNvwnD3IeJxyIiR+NswU/QVlzsUM7x9PCGu7sMhvoa8XyToQ4///TNNfvx8FBgXFIqii7loaa6wu5nLS0tsDQ39WjcRCRtfR70np7eiIlNQVnJGRjqO59ljopJQWOTGWWlZ13bv4c3PD0VKK/vuhwCAN4KJTw8vJyaEdfVViL7wGeIih6HsPAYnDzxDzQ0GBAQGIYbb74Tbm6t976nTJ9r975JU2eL9wmuXL2CK11c6ISbrkaj3qUXRSKSpj4P+u4EuDo4AgFBYcg9ecCpks21+PgGAoDdrPlaVD6BuHrF+u96e88pFL7QDI9BQ4MRFksjAMDXNxB1tVXIz/0Xrly9Ynf+sGEyJI6/CXV1VbC9T3Atnp5KtLRcRXOT2akxEtHQ0qdB7+MbhICgMJwt+KnTAJfJ5BgeGY/a6oprzvh7M4amJnM3V7W01tZNpnqnQtTN3R2RUQmQyzwwTOmHxPHpOFvwE3z9ghEQGNqhni6wWi24eKG1rBUVPQ5RIxM77eNc4XHIZR5obDI7ef+AiIaaPgt62xuwuqrSTs8TbsAWnD7s+jH0sD7v6ekNlU8QLldc6DDz7o6QkEgoFT5obm7CpQun4K3wgSZsFLy8lMg9+U/U1lR0eE+QejhGjhqPBrMJAFBWWghtxQUAgCY8BgGBGpzJ/xFXr7aGutXSjPgxU2FpboTVyqAnoq71WdD35w1Ysf0e1udVKn8MGzYMNTXaHvel8g3EiKhEVJSfQ9jwGBjqa1B5uQgBgWEYHhmHpOSbOn2vrqoEFkvrDVSrtRmt+e0GpdIX9XodGhoM4rlubu5wl8lw1WpFd0s9RDS09UnQ9/cNWEFP6vNubu4IDRsJk7EOJqO+R/0Mcx+GqKhxuHz5ElpaWtDc3OiwPt8CNySOT0NNTQVKi89csz4vl3tCofDDZW2RfV/DhkEmk6OZs3ki6qY+Cfr+vgEr6El9XuUTAD//YJw7e1wsk3SXm7s7amoqcLniIsYkTGstFf37d7L93oC/fyjkHl7QVbaWsq5cseLkif0O23T0zVrZMLnDObyHpzfGJszAxfMnUd8H9zmIaHBzedAPhBuwQM/q8zKZHCNHJcNgqEG1rrzHfVmtFlSUnYNc7iXOwj09FUiemAkvB8+fmTpjnt3rxkYzTh7fhyabG8Aqn9ZPI8Mj4uDjp4ZS6QOz2YBTOT+gubEBHp7eGDZMhitXrPBRBUAub71BS0TUnkuDfiDcgBV0tz7vBjcMjxgNhdIHuScP9Hg2b8t2Ft7UZMZPh78S+wgJi0Zk5Gg0NzeiqrIE2vILaLGZn/sHhCIqehx8/ILg7a2Eu7sMV69a4eOnRl3tZVy6cBKG+lpYrc0wm+sREBQGhdIPJqMeYRGxqKoscfh4ByIilwa9f0BolwEu3IA9fy6n1zdg40ZPRlh4zDXPiR8zFfFjpjr8WWHBUXh4KjA8Mh5nC350eu28wPb5Nm7u7vD2UiI4NAqa8FHQ11XhVM4BXLlqRdzoyQgPj0VJSQHqai+jubkJoZpoKJS+qKmuQF2tVgx1R3S6MoQPj8WYhOlo+P/s3XtclNW+P/CPOtzmwjDwAMNNUCAVEQzRRCgUrNBtXoLcnZBEj93MzVbb2rHaJ311e2VlnY56uvgr3WZnb9PUstJSy7NFTclEETVQ7jDAwDAwM1wG7ffH7OdhnrnADAwXh+/79dqvVzOzZq0FuL/Pmu+zZn1bWyASSnGj6EKf5k4IcV4jJky6z2FbN2bc+3C/HlrGNwIuLq4YObJ3Jy3/DkCvb8fo0ROg1TZBWV/Vh7kY5hMVnYC2Nh1qqosRHXMfOtrbUF9Xjvq6rl01bFup1Aejw6Lh5uaOwoLT0OmarfZsiQ8ThHHjpwIArl87jwZlX+dPCHFWDg30hBBChh4qPEIIIU6OAj0hhDg5CvSEEOLkKNATQoiTo0BPCCFOjgI9IYQ4OQr0hBDi5CjQE0KIkxuQ4uCmRvuMwV/mvgyxuxgAoGnT4O1vN6G8oWQwpkMGQNbcKjyXWQJXl9v4Mc8Hz26eONhTImTYGJRAX95Qgpzd2QCAFTNzEBMSNxjT6JP9GyMwYbQH9/jHi8149v2ybt7R//ZvjIBUKMDT75WiuLptUOdiLDFWhVWLy5CbL6MAT8ggoNSNnRKjxfh520RIhQLMf6kIUcsvI2r5ZQDAusUBgzy7oWlGjAoA8PnRwEGeCSHD06Cs6O9kazPkAICX/1bJWzUP9mqeEEKs6bdAv+GhVxEpHw8A6LjVgU9PbsfPN07Z3c+KmTmYEdlVb1WhrsbmwxvRpOsqD/iHyYuQPjWT97795/fgm4sHuMdeQm+sn7cRcmlgt311JzFajGBfN+Rd1yC3QGO1XUSgOz5YHYbrla0oVXRgWRoDAOjQ/453vlBg9zEl13bd4gDudQC4Wt6K9I3FZuNueSYUEo+uD2CfHlHirb01Fl/76tVI7r9NU0rbckIxa7Kn1fHY/vadbESY3JVr29J6G2v/p6zbn5sQMjQ5PNCzAVXs5omNX65DeUMJvITeWJK4AtdrCm0OqoAhgAPA8o8zAHTdxH0mdS3e+PolAMA94Ul4KO4Rs8Bu6pnUtQCAtXuetGsOxsbK3eEmGIFSRfcVq1izJnuipfU2nthSgtwCDfZvjMDSBxicKdSguLoN23JCET9OzL3OXiD2b4zggm9EoDvWZsh5QXZbTigyU32gaNRj9zEl7nnWcCx0Tzn6/RsjEOzrxo3HBvVjm8ebvWdZGoNqpR7zXzIUbvlgdRjWZsiRW1Bs1i8hZGhzeI4+Y9oSeIsZ7Dm9g9tF06RrxNYfNtsdYL+5eAA7fnqfe1zeUIKapkpIPDzhJTSU2mMkvgAAZUu91X68hN6QeHiipbW510G+N6qVemS+doML0IpGPSSiUfD3FiAxWoz4cWLsO9nIvV5c3YajeWoE+7ohMVrMPZe+sZi3kj5bqAUAyL1dbJ5L1mwG4QHuvPFyCzTYd7IRjFSAhCgxr/3V8lbMXn8NxdVtKK5ug1rXCalQgIhAd7t/D9MnNaGyzh25+TK730sI6TuHr+h9JX5o1Chxvaawz31ZSrcAhpQLK/e3k0i8axaeSlmNp1JWW1zZN+kakfvbj0ifmolPnthnd8qmt9S6Tqt5/KzZDNwEI7AsjeGlbgBDimes3J0LyKbpnd6Qe7ugvfN3nC5s4T1/urAFGcneZhcNRSO/KIxpOskW+zdfwIQwDT79Ohhv7R5r/6QJIQ4xZG/GWkoBAYbcv8SjK8fcpGvEC3tzuNfSp2YifWomThf9H+/TwDcXD+CbiwdwT3gSliWvxJbMj+zev39T0Yb2zt8RJnd12M/J5tqtYYO8ca49azaD5x6RO2wO/SV9vWHb7P7NF3Bs2zk8/UY0iivNi6UTQvqXw1M39S11ELt5wtND2qd+PD2kELt54lLFBZsD8Rtfv4TlH2egSHENY/0iuPSOsZ9vnMLTnzyGD0+8B1cXV0wKmWzznHILNKisb0f8ODGXWuktWy8aYXJXtLTexucnGvo0nqJRDzfBCMyIkvCenxElgZtghNkK3pHOXvaCRNQJf5/2nhsTQhzO4YH++8tfAwCeTl3DBVovoTdW3b/eYuC1prlVDU17M3wlftxzxjt5rLE1H29Lbt+Sg6ea4CYYgU2PB/Py1dtyQu3aR59boEHedQ1mTfbs9n2lig64CUZgrNwwFruad3UZYdZW0ai3mG8HgDOFGijVnchI9uYuUonRYmQke+NGTRtvJxAhxLn0S81Y09y66fZKNn3iOsp8NWuccjFtV6S4hvqWOoz1i+By7KbbL9l27K4cwPzIBUtzsge7OyaQ6cprG6dW2NfVus4ec9um2x0B8y2Pxt/C7dD/jj3HG5CR7I19JxvN0j49fWO3p9fZnTh51zUO+27AuqybyEhVYO27E+iGLCGDgIqDk35HgZ6QwUVHIJB+p2hwg5vLbTz2YHXPjQkhDjfK1z9042BPgji3S0WekIg6sWhWLZ59pAxRYzT4Ntev5zcSQhyCUjeEEOLkKHVDCCFOjgI9IYQ4OYcGei8ZnTdOCCFDDa3oCSHEyVGgJ4QQJ0eBnhBCnBwFekIIcXIU6IeQ+wOTsOvetyD36NvZ86RnbJH3ix9GI2t2//6+7w9Mwn9NewliF1G/jjNUsL/bbTmhgz0Vm4ldRPivaS/hUOoHTvm3GrLn0Q9loRNTMW3+87jyf7tQmLvHIX3e7ROFJ+5ajI9/2wtFK50kaUlPpRKHqjP1v2Je8Ey8dvcavPjru9Dotf02lrXTTXuqe3CncfS/heeilwMAMv/vuX79+wwWWtEPAXIPBqujluH76lP4odr+0zSJ/XILNLjn2SuY/FRBvx/RrNFr8cblD+DlJsWjY/7Qr2OxPj2iRNTyy4hafhmfHlFiWRpzR62wB5Lcg8FY8WgcrvzJKYM8QIF+SHhq/L+hqV2Nv5d8M9hTIf1E0arEZzcO4YHAJNztEzWgY7+1twZXy1sxLtijVzV/yZ1vyKduPMQMUpe+B4l3CACgXdeMH/eshUpRBACISszE+OmP4vSBTYifs5prV19xGcd2ruL1NTt7K3xDJnGP8098ZJZ6SVjwIsJiHuAetzRW4Piu1WjVKM1ei015ErEpT1qcl63jsauJz24csriakIilyMpeiarKciiVCqSkzgMA6Dv1OHzo7ygouMC1jY6Ow7wFj8JF0HVOPtuurPQGsrJX4trVyxg/YRJ8fPxwKT8PABATG4+Ghjrs3rkdLRq1xb5adTp8tns7FIoqrm+vkDGY/dc34SHzxi+7PkDh4X1m87cFewa+xKNr3cGeyW/pta9ejeT+2/g8/XWLA5CR7I1XP6vGnxf5c/UCjM/3N+2vpfU21v5PGa/4OltP4HplKwBw9QIstbVUT8B0TBabwpk/OhW/NliuqZz6wusImZaIinO5OP76Cz396mymaNQj2NcN/t4CFFcb5j0u2AP/daAWLy0J5H4f1uoTsK936H/HO18ozD4FmdY5MGatPoO19ItpjWR2Tvb8WyB8QzrQy+SRmJW5BR1tahx8Nx2tGiVk8khMTHocp/b9lWvnJvTErMx3UHrpexzetoTLoUclZqIwdw93sWjTNuF/X0kG0JVnB8AF36jETADg2rDjJ2ZsxLGdq3Dm0Gs4c+i1HnP0to4HAJNk4+Exyg3KdsvVsERiMYQeYshkPoiMjMLHH74NrUaDrOyViJ+axAX6BQszERMbjxPHDyP31HHuucjIKCiVtRCJxXB1cUXclAQU/VYInVaLmNh4VJSX4MTxw0hISIFILEaLRo0FCzMxYWIs70KSvSwHD2c8zrsYOEJEoDs2PR6Myvp2i0Va2BQLYFteVuIxEm8+EYwfLzZj9vprXM563eIAvLW3htfftpxQxI+zXhJy1mRPXC1vRdTyy1yQWZshR25BMff+xIkSvPF5DXYfU3JtrP0sGr0Wl5t+wySvuyB2EQ1omkDu7YIW7S3UNnZyzwUyLnjziWAuf79ucQAyU32QNZvB7mNK7neXe6WFC6DbckKx4bEAyL1d8NbeGi6IA8D8l4pQXN3G/R56g71wGt9T2PxkCDcne/4tkC5DOnUzJe3PAIDc/ZvQqjGsIFSKIl6QZ+Wf+AhnDr0GAGhuKMetjnZIGcM/wDGxD8LVXYpfjvwX177synGoan5DYGQC91xh7h6uD3as5oYyuIu84CG2fWeGreMBQKg4EDW6OhQ1W16JMIw/BK4uYBh/bkXdolFDp+0KEtHRcZgwMZYX5AFAJvOBrlUDrUYDhvGHu1AEZX0tThw7DKFIhFadDke+2w+GkXPtoqPjEHlXFC/Iy+VBYBh/6LRaXpBvqijBvicXY/cjs3u9mvf3FkAiGuXQmrWfHlFygakvBd2NV+VsvWCpUMClP+TeLlCqO3GmUGO1jakyTTUChH6I9LQcCI+//gJ2Lkx26Gp+W04oJoz2wNE8NS8oduh/xxuf13ABlf0byL0Nn4QWJnlBqe7Eu/tqufe8u68W1Uo9pkcZdqUsSpKBkQqw63tlnwNu1mwGiRMl+PFiM+/G8fqPKvr1PsokmaE86WXVtX4bY7AN2RW9h5iBu8gLzQ1lvHSIJZ2d7dA2KbjHKkURvnznIe6xlAmDm9ATaU/sMHtvS2MFPMQMWjVKszSRcRt72DoeAASJ/G3qs6iokEubsIG3qMjw8T88YgI6O/S4Udz1D1UilkIoEnHBWeplqOyUd/4U9ymB7VMm80FVZTlaNGqER0yAh4cQi9KzsCg9i+vvUn4eDh10zA4jY8a1cws/mWQx5WGPDv3vvIuG8Qre0RSNeoQHuCMhSsytZIN93ZB3XTPoq8xlaQyX/mhpvY0ntpTwUk4A0N75O24quua5+5iSC6gRge6QCgW4XtnK+1mKq9twvbIr3x8md+Vd7PqCvcCcLRyYTzr3ByZh1YQluNB4BUv/uW5AxhwsQzbQO5qlHLoxNsi7uktx5OMVXLvZ2VvhLvJy+HisKm0tvL2kVl9ng/jPZ3/inmNX+Uql4eImk/lAqazl5c9jJsfDx8cP+RcP/+s9cjSrVSgrvYHQsHBgBHCj+KrRReMKJGIpgoJHo6K8BDs/fd/un7m3jHPsy9IYFH4yCdVK/ZD/WF6q6MCsySOw4bEAbHjMUOD9anlrj3ni1lvtqNHV9evcnG07ZX/44V+73O4PTMLeme/jjcsfWL13cqcbsqmbVo0Sbdomu9MmlqiVpRjl6gZPn9FW27iLZXB1l6Km+GyPwdkR47F6+ihvnH5hsatzdZPK4nskYiliJ0+DvlPPtZHJfLjVfXjEBOh0GpSV3gDD+AMjrPc1kN7aW8NtB2SkAiREWc+fD7aIQHc8GC/FjxebuW2MUcsv9/hpJFQciKZ2NTSdrQM0094prm6DWtdptlMnItAd44I9oNZ1chdhiWgU/L271oxj5e5wE4ww67MnpqmjgXJZdQ2tt9rBuHkP6LgDacgGegAoOn8AHp5+SMzoqnYok0ciKeMVu/opyT+K1uY6TElbDZk80mKbNo0KHW1qiGQB3HOmu2ZY7D0A03y7PeOx2H9kU3yizV4zTb+wjFfnXc/5Qy4P4nbpdOr16NTref0UFRlSGMZBX+olA34HlMpatGjUqKoshzwwGNHRcd3OGzDsusn4aC+yvjiGqHkZPba3VZjc1SytABgCwVC7ANgTlMQuIkzyuguNerXVG7GpL7yO7IMnkfrC646aYq+dLdQikHHBmoyu9OKaDH8wUgEOnmri2rgJRuCxFB8Alr+wxV40jO9dWNqls/uYEjdq2rgbwiz2ZqyxofhvYSgb0qmbsivH0dxQjlmZW/Bvfz0JoCslYo9WjRLHd61G6tL3zPLm7JbHVo0Sl3/6FNPmP8+NVV9xGaWXvodP8ATee1SKIvxy5D1eW+NUjS3jsRStStzUlONe/6k4XHGC961YNpeef/Ec9xybXjEO/ke+248lWSvxxFN/AWDIpyuVCiQkpECprEVoWDiEQjHUTSou6FdVlgMAIiMn8tI+hw7ugUzmY5aj7690jqXAYGkbI2BI8ezfGMFLldi7pc7SeB+vHWN3X8XVbdj1vRLPPSJH4Sf8xYC1+Sf43o0AoR92Xv7S5vkOprf21kDRqOf9jC2tt/Hsf5dyP9vuY0rIvV24lFtL6238dWcV/ryIf+9pyz4FtjwTym2H/PFiMxSNeowL5gf79I3F3M4e47+x6c1YR/xbGE4cWjPWSxaIJlW1o7obNuQeDN6Mfx7/rD2PHb/tHezpEBuwWwjzrmss7js33WJJf+Ohi/3bfHbjkNN+M31Ip26GC/Zbkw+FpGDFXYsHezrEBtby0Ozzxjt/xC4ibJj0NH37eYjSdLaiqV2NecEzne4wMxat6IeQ+wOTsCR8AZ7Pe5MONrsDmH6Dk2W64+X+wCTMC57Z7weakd5jV/VerhKUtlQ63d+KAj0hhDg5St0QQoiTo0BPCCFOjgI9IYQ4OQr0hBDi5CjQE0KIk6NATwghTo4CPSGEODkK9GTYy5rN4OKH0Vi3OKDnxgOkIzIZTSv24nYfT24dCJ3yKKiX7rwj5jpcDelDzYYytl6qqrTYodWAhhtL3y61Vpf0TmWtZqo1nfIoaB98HqKjb2KkZuj/DgSKQoxSlqD50e3w/PvKO2LOww2t6HtJxDBwFYuhrq4c7Knc8diSduyZ7rlXWrDhsYAhtcIeKLfFDDTzNsL9l3/AtejkYE/HZqJjb2NkSx10yc8O9lSIBRToeykgdipGubhCp+zfSkHDkWld0uFEl/wsRrbUwf1C72rwDpYR7VoIT26Hfsw96IhMHuzpEBPDJnUTn70Sdz0wDyffehlTsp6C91jDudiauloce+V5NFWUcG3nb9nBvQ4AFedycfz1F7h0jdiv66ztaSv+hGkr/mTWV+oLr8M/ejJOvvUyqn49DwCImpeByY8tx8XPP0Hh4X0Iunsqktdtwm/fG8r9RS/8IwDgll6PX3Z9gMLD+3jviUhJ63be3TFONQFAyLREAECHTsubo3Fb9uc0no/xnPN2brc6Rl/SWZYKVXywOgzXK1tRqujgUj2WUjymqSBLJQnZVEogY7loiLVUy/6NEZAKBWb9GRfRMJ6T6dn3gXDhnV1vevjZbTGDzoCJEJ7chhHt5gdqRUfHIW1uOo58ux/xU5MQMtpwjn5DQx1279zOK04THR2HeQsehYug62fUd+px+NDfUVZ6A1nZK3Ht6mWMnzAJPj5+uJSfBwCIiY0362/BwkzExMZz/VirTSBQFMKl5Ge0xT0Cl/I8iz9D6guvI2RaIvf/KTIwhs2KXhoYjNsdHbj3zy9Cq6zDzoXJOLfjv+Eh80ZE6hwAQNDdU/HY598CAHYuTObaBN49DfHZK9FUUYJ9Ty7GzoXJaLxZBE1dLQ7+KZtru+/JxVzgFTF+6NBooFV2BaGAGEPVJnWV4fxyaZChfGBwfALCZszEwT9l4+CfstGqakREShoAQMj4AQCi5i/m5mU6b3uETEuEiPHDzoXJ+GGToVDJlKynuNeD7p6KuW9ug6q0mPu5rn7zJaYsfZpXRUoaGGzWt6PSWWxhauNydQAwa7InMpK98cSWEkQtv4wbNW1Y+gDDXQy25YQiM9WHSwPNf8lQEnLPi+FIjDZUIkqMFmPPi+FQ6zq5VNEbn9egQ2//2X4Rge44tnk8gn3duDllbCrGzMkSRAS6Y/cxJSY/VYD5LxWhWqnH1fJWXtlB05qunQET8bu7GCNb6i2Ox1YDu2/mgwCAVzatwYH9u+EplSFmclcgXrAwE4vSs/DPk0fxyqY1eGXTGlzKz0Nnhx5KZS1EYjFcXVwRNyUBVZXlqCgvQUxsPGQyH5w4fhhCDzFEYjEkYilWrtqAoODReO+djXhl0xp8/OHbYBh/LFiYaXGOrr/9hNsSP/zu4mHxdTI4hk2gFzF+cPeSof63QqsriSlZT0GjqMZXa1dwz7HB2ThF4xUyBq5iT6hKiy2uqK29bhr8hYwfXIUiCFzdrK7OpYHBcBWK0KFp5ualrirDLX1HL34LQOPNIq6fql/PQ6OohqvYE14hhtXh+DmL0KHR4JfdH3PvKT7+HVpVjQiIiYNWqUSHUf3a1BdeR8ZHe+EVMoa7cPU1nfXmk8G8cnWsaqUema/d4KobKRr1XL3SxGgx4seJkXulhVvhs1Wg3AQjMCNKAgBcybst+xR9miPQVVZv64Fabk7F1W3497dLelXU/BYThlH1NzFKZblKEsPI4SEUQqfVcitqpbIWnR1dZ99HR8dhwsRYnDh+GLmnjnPPG9ceZhh/uAtFUNbX4sSxwxCKRGjV6XDku/1gGDnXLmX2PADgre7DI8bDQyjkCtObGtlSj9/dxegMmGjx9eOvv4CdC5NpNT/AhkXqhg28mrpaXgArPLwPhYcNudCgu6dCLA+Eq1CE7INdN8E6dFqceH0DL7XR08o1MHYKPGTeKD3d9bql4C8NDMYtvR6FX+3lnmM/NRi7pdej+MQR7nF/3h8QMX4Q+/lj4X/vNHutQ9OMpooSdGiaIWL84BUyBrKwCHjIvBEYOwUAcLujg/vEYitXlxG8knDVSj0yNhWbBUvTFb5xZSe2pujZQn664EyhBkp1J8LkrgAMNV4r69vNyvz1htzbBUp1J84U9r0vALjlHdZjG32nHnnnu6oghUeMh8DVhSvuHh6QUzPqAAAgAElEQVQxAZ0detwovsa1Ma09zBaXzzt/iitXWVRUCIWiCjKZD1dmMih4NHx8/LD6uY288Q/s342CggsO+ZnJwBgWgZ4NzLUFF63mtNngeW7Hf3PB35qeAi2bbjF+PSJ1DsR+/ig9/ZPRvPzQqmpEdf4vFvthA6m6opQ3J8MFwv6Aaque8v9aZR1kYRHwDo9Eh6YZzTWVCIiJg7q6EiNdXe0ez9m2U/bWqMZS3Bb7WnyNrRWsqK7kBVmGkXMpGcCwcjeuAQwAMZPj4ePjh/yLh7n3sMXlQ8PCgRHAjeKrkMuDwDD+KCq6gtCwcHhKZWafDGwxol1rNf1EBsewSN1Ig0IxysXVYVshewq0pq97hYxB2IyZuKXXc8GfXeGzq2RL2AuU1uSCYin/7yhaZR1cxWKIGOtffmF/j/5RMdAq61B5/jQkgSHwHhPRb/PqyU2FYaVvulMnIUoMRipAqaIr1WV8kxcwrMyNi4Xbyjh15AijlKW45TsWt2ShZq+xK2+VqoH3vHFKxhKJWIrYydOg79Rzq36ZzIdb3YdHTIBOp0FZ6Q0wjD8wAly73rgt8QV+/x0jNbQbbSgZFoHe0grbVE3+edzSd3A3Qbujrq7EKBdXLifdHXYnSmdHOy+vbi2IG7N0gerp/kBfXfvuAAAg4Zl1XN7elO5fF4PQaUmouXQB1fm/QODqBu/Qsd1euPpTboEGlfXtSJwo4dI4EYHuWPoAA6W6EwdOGYLX2UItAhkXLEoypC8sfWHL0q4f4501rM9PGILupseDuXYRge74f38Zw7uQsP0F+7pxN4UtEdRcwYg2DfRjppq9xjD+ELi68HLjbEqmqrKct+OGYfwhlwdBIpYiK3slOvV6dOr1vPcUFV0BwA/67M1epbIWZaU30KxWIXbyNEjEUqtzNtVx10yMbKnDCH2rxddTX3gd2QdPYv6WHTb3SfpuWKRuAmPiuk2RAIYbkxc//wRTlj7Ny9Ebby1k5e3cjsCYON7WyoKD/+C2G1777gD8oyfj/pffBmDYnqmursRdD8zjVvls+qfmkvVcp5Dxwy19B2ryu+4PWMr/O1LVr+dx8q2XkbxuEy9Pb/x7YH+Gzo4OVOf/gqaKEqhKixEyLRH1vxX2y7xskb6xGNtyQnn5/qvlrbwtkm/trUGY3BXL0hgsS2NQrdTj+Y8r8dKSQF5fW/YpsOWZUHz1qmE7648Xm6Fo1GNccFewzy3QIPO1G/hgdRjXjk1Dmd5feP6jSnywOgwfr+26eJpurxypUUJQcwXtE/8At8vf8L5hKvWSmeXe2fRK/sVz3HNHvtuPJVkr8cRThh1Vl/LzoFQqkJCQAqWyFqFh4RAKxVA3qXgXCgCIjJzIS/t8ue9vWJK1kpejB2A1ndMpj4J+zD0QHX3T4tZKwLBICgEglgci6O6pvHtfpP9QzVhChpDbYgbNj26H25Vv4HFm12BPx2a/u4nQsvBNjNTUQ/zNJqvt2E+4rmKx2fc3SP8ZFqkbQu4UIzVKCE9uQ2vCcrQmLB3s6dhMO/svuC3xg/Dktm7bsZsSagsuUpAfQMMidUPIncS16CTEX/8ndMnPmqVwhqJOeRRuMWO6PdAsal4Gpix9GqNcXHhpTjIwKHVDCCFOjlI3hBDi5CjQE0KIk6NATwghTo4CPSGEODkK9IQQ4uQo0BNCiJOjQE8IIU5uSH9h6v7AJKyasAQAsPXqZ/ih+lQP7yCEEGJqSAf6H6pP4YfqU7g/MAlP3LUYyvZG/NoweIdmEULIneiOSN2cqf8VNbo6TPGJHuypEELIHeeOCPSEEEJ6jwI9IYQ4OQr0hBDi5O6IQK/Ra3G56Tfc6z8Vcg/rtUwJIYSYG9K7bozt+G0vfmkowPv3/CdqdHV48dd3odFbLldGCCGkyx0T6F+++0/wdpFiee4GCvCEEGKHOyJ1I3YRwdtFistNv1GQJ4QQO90RgZ4QQkjvUaAnhBAnR4GeEEKc3B0R6CM9QxEg9EOZhgqPE0KIvYb0rhvj0yu/rjhBp1cSQkgvjJgw6b7fHdWZlywQTSpadRNCyFByR6RuCCGE9B4FekIIcXIODfSUtiGEkKGHVvSEEOLkKNATQoiTo0BPCCFOjgI9IYQ4OYd/YSprbhWeyyyBq8tt/Jjng2c3T3T0EIQQQuwwytc/dKMjO7xU5IkPvhyNZq0Af7y/BhJRJ05fkjlyCEIIIXbot9TN7m+DcKNKiOmTmvprCEIIITagHD0hhDg5CvSEEOLkKNATQoiT69dAf/ayF8KDdMiaW9WfwxBCCOmGQ48ptiQxVoUta64CANa+OwG5+bQDhxBCBlK/Fh7Ztv4K4qPUFOAJIWQQ9WvqRs60o7LOnYI8IYQMIroZSwghTo4CPSGEODkK9IQQ4uT6LdAnxqoQ7NcGhdKtv4YghBBig349vfJqqZhOrySEkEHW7/voCSGEDC7K0RNCiJOjQE8IIU6OAj0hhDg5CvSEEOLkKNATQoiTo0BPCCFOjgI9IYQ4OQr0hBDi5CjQE0KIk6NATwghTo4CPSGEODkK9IQQ4uQo0BNCiJOjQE8IIU6OAj0hhDg5CvSEEOLkKNATQoiTo0BPCCFOjgI9IYQ4OQr0hBDi5CjQE0KIk6NATwghTo4CPSGEODkK9IQQ4uQo0BNCiJOjQE8IIU6OAj0hhDg5CvSEEOLkKNATQoiTo0BPCCFObsACvcTTBzPufRihYROtthEIXBAbl4LYuBQIBC4DNTVCCHFqAxLoBQIXjI2IhaqhBmWlV6y2Cwq+C+5uQly7cgadnXq7x4iNS+n2QuJIAz0eIYT01oAEei+ZP0QiL1RW/ma1jZubB+QBY6CoKUF7e6vdY4waJYC7mxBarbovUx2y4xFCSG/1e6B3c/NAeMRkVFVcR0tzg9V2Y8Mno61dh6puLgbdkXj6YJTAtVcXiTthPEII6S1Bfw9gSwBnfIMh8wnA5fyTdqVsBAIXTIy5F1KpL/fc3VNmc/+tVtfjyqV/cn26uXlgclwq3NxFAIDOTj0u55/kXYAs9cn2A8Cu8QghZCgYMWHSfb/3V+cSTx9Mik3Gb9fOQVlfabENG1g72lpxtfBMr8eaEJUAV3cPq4GW8Q1GVHQiCgtyubmEhk2EPGAMLl44jvb2Vu5C0Kxu6HEuPY1HCCFDRb+lboxvwFoL8kDXDdibNy72aSxXdw80NdZaDLps+sg4yAsELvDy9kdbuw63bnUCAFzdhBglcEV9fUWfxiOEkKGk31I37A3Ym8X5Vtv09QYsq6cboxJPH7i5ixAVnch7vr62nLdyb9U1Q6ttQlR0osW0jq3jEULIUNIvgX6gbsCyerox6usbYlP+vLNTj/wLJ7h00t1TZqO9TculdmwdjxBChpJ+Sd3YcwP2ZnF+n9MfIpEUtzo70NGu61M/LDbg/3z6KwCGwN6f4xFCSH9yeKCXePpA5hOAqorfrAZwgcAFQSF3QdVQ0+2K31ZarRqjBK5wdRNafL2+vgJSqS+8ZP529Wtt5d7TeIQQMpQ4NHVj7w3Ya1d6v8vGmLK+Er6+IbytjsY3XpX1lSgrKTDL0Runc9hdOcba27T45dx3ZoG+p/EIIWQocej2SsY3GOERk81y2sbYLYw3ii9SYCSEkAHg0NTNXeOndbuDRiBwwfiJCWhr16FJVevIoQkhhFjRr1+YIoQQMvjoPHpCCHFyFOgJIcTJUaAnhBAnR4GeEEKcHAV6QghxchToCSHEyVGgJ4QQJ0eBnhBCnBwFekKIQ+3ffAH7N1/gPRcRrMOxbeewLuvmIM1qeOv3mrFDyYaHXoXEwxObD29Ek65xsKfjcNnLciAUibB753a0aKgoykDZvzECE0Z7cI9/vNiMZ98vG8QZGeYkFQrw9HulKK5uG7Bxt62/gmC/Nqx9dwLv+eJKIY6eZbDsIcP5Vm/tHjtgcyK0oiek1xKjxfh520RIhQLMf6kIUcsvI2r5ZQDAusUBgzy7gbcu6yYSY1XYujcUufkys9ff2j0WP+b5ICNVgcRY1SDMcPiiQE9IL63NkAMAXv5bJW/V/Oz7ZXhrb81gTWtQJMaqkJGqQG6+DLu/DbLa7t3Px6BFK8DazJIBnB3pt9TNhodeRaR8PACg41YHPj25HT/fOMW9PtpnDP4y92WI3cUW23gJvbF+3kbcrCsGAMyIvA8AoGnT4O1vN6G8oesfyh8mL0L61Eze+PvP78E3Fw+YjQMAWzI/4v77dNH/YcdP79v982Uvy0HI6DEAAH2nHocP/R0FBYa8pEQsRVb2SlRVlkOpVCAldZ7FdgCQmJTKvQ4AFeUl2Pkpfz5yeRCWZK2Eh7Cr0MmJ44eRe+q4xddWP7eR++9L+Xk4dHAP93jBwkzExMZbHY/t78yZE2AYOde2VafDZ7u3Q6Gosvt31VdR8zIw+bHlKDz0D0Sk/gFiP0MBmcabRfhq7QqztlOWPo1RLi4AAE1dLY698jyaKkq4fi5+/gkKD+/jvS/o7qlIXrcJv31/GHk7t/c4p8RoMYJ93ZB3XYPcAk237bY8E4p9JxsRJnfFrMmeAICW1ttY+z9lvPeuWxyAZWkM9/hqeSvSNxbz+jNtY9wPO5bEo2v99tWrkdx/m6aUtuWEcvOxNN66xQHISPbGq59V48+L/BHIuFid14wYwwr986OBVn8XQFcKJzOtGllzqyxeFNi/BQCcfOtlVP16vts+Sc8cHujZAC1288TGL9ehvKEEXkJvLElcges1hWjSNeKe8CQsS16JvJtnuSC7YmYOnkpZDUbii28uHuD6mxF5H4oU17D84wwuaGfO+He88fVLAIB7wpPwUNwjXGA3Vd5Qgpzd2QAck6Nng7jQQ4yPP3wbCkUVJGIp0uamo6z0Bi83HhMbj1adjmuXvSwH9818kGu3YGEmIiOjeP1kZa9E9rIcLvhKxFKkzUnnBdkFCzNxb/KDUDepUFBwAW+/9SKAnnP02ctywDD+3HhsUF+5aoPZe1JS56GhoQ7vvWO4aGRlr0TanHSzi9BAGeXiisn/thwFB/+BvJ3bEZ+9EtEL/4j47JVcYI7PXokJf3gYv+z6gAvk87fswOy/voljrzzP9SNk/Mz6lwaFAgB0yjqb5jNW7g43wQiUKjpsar8sjUG1Uo/5LxUBAD5YHYa1GXLkFhgC5racUMSPE+OJLSXILdAgItAdH6wOw/6NEVxQzZrNYHKEkEsPsW02PR6Mp98rRW6BBvc8ewVAzzn6/RsjEOzrxo3HXiSObR7Pe4/EYyTefCIYP15sxuz115A1m8Fzj8ixbnEA71PL9ElNaNEKUNvg1uPv4vQlGTJSFZD7tNv0uyN95/BAnzFtCbzFDD49uZ1bdTfpGrH1h81cm5SoNDRqlNh37jPuuX3nPsNYvwjEhEzhBewixTUuqJc3lKCmqRISD094Cb3RpGsEI/EFAChb6h39o1iUMnsePKUyHD70dy7wtmjU+GLvJ2ZtGxrqeAFUpWoAw/hDJBZDJBYjMjIKZ86c4PWTf/EcEhJSIJcHQaGoQotGbRZcbxRfxYSJsZB6medBrYmOjoM8MBj/PHmUG0+hqMKZMydwb/KDCA0L533SMF3p67RaCEUiSMRSm270eoWMwey/vsmtvk2xAdsexu+pyT+Pux6YB2lgMDde2IyZqP71HG+1XnziCCY/thyBsVOgrirDLX1XYJ6/ZQcA4Ku1K7jgr67qn5uopqtgta4TUqEAEYHu8PcWIH6cGPtONnIr/OLqNhzNUyMj2RuJ0WLkFmiw+5gSu48pu3626jZcr2xF/Dgx/L0FKK62bS5ZsxmEB7hjz/EGbrzcAg32nWxEZqoPEqLEvIvDp0eUXFC/qWhDe+fvCJO7cq9HBOsgFXXiepkIxZU9l9esbXBDi1aA6ZOaLL5e9et5fP7YXNt+GGIThwd6X4kfGjVKXK8ptPi6l9AbEg9P3Kwr5q2qm3SNuFlXjLF+EfASets8Xu5vJ5F41yw8lbIaT6WstrqydxSZzAfNahXKSm/02Fan1fKConEKJTo6DgJXF6SkzuOlbgBDiodh/LmAbJre6Q2plwydHXrcKL7Ge/5G8TUkJKSYXTRUKn4tX3tX8k0VJdj35OLeTbYXRAwDV7EYIdMSkX3wpNnrQsYP1fm/oEOjgTQwGEF3T4VYbkgzBN09FQDQodFAq1SavdcRFI38+snGQT8hioGbYASWpTG8tAwAdOh/x1i5OxeQTXf4AIb0jT3k3i5o7/wdpwtbeM+fLmxBRrI35N4uvPGN5278qYHl79MOiajTrjmQgXXHb69s0jXihb05AAypmfSpmUifmtnr3PtAY3Pt1rBB3jjXHh0dh3kLHh2oKd5RKs7l4vjrL1h9vUPTDBHjB2lQKJrKSyBwdUNA7FTuk4GtLK1s+8p45WzJ/o0RCA9wxxuf13ArezblM5jYFbq9FMqe0zzEMRwe6Otb6hDgFQxPD6nFPHiTrhEtrc3cyp1t4yX0xli/CLS0NqNJ12jXqp7Fpng2PPSqWf+OYpx+6ctedaWyFp0dejCMvNt2DCNHq06Hn8/+1OuxAEDdpILA1QXhEeN5N1TDI8ZD4OoCdZNjt7v1R+qmO1qlEh0aDUQW8u/8dnUQMX4IiIlD3TXDyjQwJg6A4SLQVGHbbpDcAg0q69sRP07MpVZ6y5aLRkSgO6RCAW7UtPHSN72haNTDTTACM6IkvHnPiJLATTDC7NNHT4orhVBrBRgXqkVEsK7H9A37CaC0xqPbdsRxHL698vvLXwMAnk5dwwVrL6E3Vt2/nnt8qeIXyKWByJi2hHsfm9s/UXikT+OzqSH2gmGsvqUO3mIG4wKiet0/G3AfzngcErEUgOGG6SOLl3OPbaFQVKGoqBAxsfFITEq12k6pVEDg6gKGMQRMdjXvInAxa6tSNcBTKkNoWLjZa2WlN9CsVnH5f8CwwyYhIQWK6kpeft4R2NTNzoXJFv/nyCDPjld6+id4j41E6guvW22nrq6EWB4I37uiUJN/HjX55yH0ZiCWB0Jr441Y1sFTTXATjMCmx4MREejOPb8tJ9SuffS5BRrkXddg1mRPq+8rrm7j5fXZcYx3zRhTNOrBSAVIiDJf7Z8p1ECp7uTy/4Bhd1BGsnevLyRnL3uB8epAQkzPC4YZMSq4udyGwsqN26C7p+Kxz79F1hfHEDUvw+65EHMOX9GXN5TgP/evxfp5G7ltjOzWSTbwfnPxAJQt9ViWvJK3bfL1Qy/ytk3aYsXMHK4PlvENXGM7fnofvhI/Lp8P2L+9UqGowof/sxlZ2Su5bYzstkl7V/hsKsY0T298IzT31HFERk7EovQsLErPgr5Tj3+ePIqEhBSL/clkPlxboGt7ZYtGje1b30D2shw88dRfuPeYbr+8k7EXj+iFf+Tl6Y23WOqUdRjl4gqNoprbtqdrVMJ7bCTU1ZV2jbf7mBJnCjX4YHWY2TZGe/fRP/t+GbblhJrl6Y1v4m7Zp8CWZ0K5saqVeuw92Yg507ws9rd/YwQ2PBaADY8FcPN69v0yFFe3Yfb6a9i/MQIfrx3Dm3dvv9HL7qRZOLO22330EcE6PDhdiRtVQqvt2E9nYj9/BMTEmW2FJfaj4uCEEIdYl3UTmWnVeGfPGKtBfNv6K4iPUmPtuxMsfnuWxW6f7emeC7ENfTOWEOIQb+0eixtVQjyXWYKsueZfrFuXdROz4huw77i82yDPbpXt0Glx7bv+20E3nFCgJ4Q4TPr6ONyoEmLhzFre82zK5tOvg7s90Gz+lh1Y+N87AQDfPv8sfSvWQSh1QwghTo5W9IQQ4uQo0BNCiJOjQE8IIU6OAj0hhDg5CvSEEOLkKNATQoiTo0BPCCFO7o4/ppgQ0nfrsm4iI1VhdjTB/C074D02EgUH/wHAcI6QpRKOjmLLeFlzq/Dkogr8x9Zx3X7DlnQZViv6DQ+9itcXv9+rI5B7QyKWYuWqDfjry+92e0LlcMf+nrKX5Qz2VIa80ImpeGTD94hKzOy5sY2y5lYhM63a4tEEWmUdbun10CnroPvXf/fF2s0z8NEPC7Bph/mhfLaOt/vbINSpXLFlzVUkxjr2eG1nNawC/UBasDATz/75RdTX1fbcmJBBkhirwqrFZcjNl3V7NIExe49zBoD5S8dj+7cPQSh2QZvOvmpUlsZ7/v3xaNEKsDbTvtNuhysK9P0gMSkVQcGjse2/XkN1df/UICXEEdZmlqBFK8C7n4/psa1pzV1bTb8/GDPnj8GRfxTh2IGeS3DaMl5xpRC7vglCeJAO67Ju2j2n4abfzrrZ8NCriJSPB9B1Hv3PN05xr4/2GYO/zH0ZYnexxTZeQm+sn7cRN+sMZ3Ebn1v/9rebeOfW/2HyIqRP5X+UZWvHmo5jyt7z6Nn0QlHRFe4MefY8ekvFO9hSgD2VDBxI2ctyEDLa8H9s07nL5UFYkrUSZ86cAMPIERMbDwBo1enw2e7tvOpUxv0Alssimta7Ne6nuyIqpv1JxFJkZa+Ej4+fxdfZsRISUvDll7uQNieda2ta6NxWHmIGqUvfg8Q7BADQrmvGj3vWQqUoAgBEJWZi/PRHcfrAJsTPWc21q6+4jGM7V1ntp7OzHee+ehNlV/i/q4QFLyIs5gHucUtjBY7vWo1WjdLsNWOm8wKA2dlb4RsyiXucf+IjFOby6w4kxqqwZc1V7Dsut3k1b2r+0vGY/XA4co+WI+7eQMgYQ1GUmrIWvLzihFn76fcH47FVsVDVt1p83V77N1+AVNSJp9+ItljZij3uuD/vK9wJHH4zlg3QYjdPbPxyHcobSuAl9MaSxBW4XlOIJl0j7glPwrLklci7eZYLsitm5uCplNVgJL684t4zIu9DkeIaln+cwQXtzBn/zhUWuSc8CQ/FPWK1KHh5QwlydmcDMFx8JB6e2Hx4Y59KDIaMHgOG8cfHH74NhaIK2ctykDYnHUplLS8QDjVssBR6iLm5S8RSpM1NR1npDV7hlJTUeWhoqMN77xiKq2Rlr0TanHTs/PR9rh+dVotXNq0BwK9jywbf6Og4hIZFcm3Y9z2c8Th279yOgoILKCi4wOvPUkBmLz5KZS22bzX0xV5AGEbOK5ziIRQic8kzuJSfh+1b3+DmlZiUateFViaPxKzMLehoU+Pgu+lo1Sghk0diYtLjOLXvr1w7N6EnZmW+g9JL3+PwtiUInZiKafOfR1RiJgpz93D91BSfxeFthopqUYmZmDb/eQDggj2bc//fV5J54ydmbMSxnatw5tBrOHPoNa7/K/+3yyxwA10XlTZtE9cX+x4AvPf0VOnJVgKXkUhdNBbXfq3H8/92FPOXjkfaHyOxdvMMbFl/uk999+TsZS9kpCrg79PeYwnD4czhgZ4tCfjpye3cqrtJ14itP2zm2qREpaFRo8S+c59xz+079xnG+kUgJmQKL2AbV4sqbyhBTVMlJB6eXD1YRuILAFC21Dv6R7HKdHWbd/4U5i141KweqyOkvvA6QqYlWnzN3lVKyux58JTKcPjQ37l5tmjU+GLvJ2ZtTVfBOq0WQpEIErEUMZPjIfQQ48t9f+NeLyi4gPipSYiMnMgFVDaQs1o0alRVliMyMsqumrv3TJ8JADjy3X7uObbyVlDwaEjEUl5fxit9W2vzmpqS9mfDOPs3oVVjKK2nUhTxgjzLeLXc3FCOWx3tkDJhAIDx9yxGR5saF49/yLUvyT+KsZPnIDBiOhfoTYO2SlGE5oYyuIu84CFmuDn0ZEzsg3B1lyJ3/ybuubIrxxE5dRECIxN444QFtELZ5Iozl/q+c+Xar/VcUP9q1zVMuTcQ/iESjJvM4PrFvtW47Y6iwQ1uLrcxI0ZlcQdO3s7tDi9beSdyeKD3lfihUaPE9ZpCi6+zNV1v1hXzVtVNukbcrCvminrbKve3k0i8axZXHtDayt6RdK0aaDVdRZV7G0xs4cjqOjKZD5rVKpSV9pwnVakaeI+Ngz7DyOEhFPJKErIaGup4gdc0vQMYLpT2ztvSp6WioitISEjhXTT0nXpeoXOFogpvv/WiXeN5iBm4i7zQ3FDGS4dY0tnZDm2TgnusUhThy3ce4h6LZAGQeIdg4Zr9Zu9t0zbxxjRO77BaGivsmruUCYOb0BNpT+wwe62lsYJ30ZAz7Xb13R2lgv83VTe2QebrAZmvu5V3kIF0x++jb9I14oW9hrz5hodeRfrUTKRPzbQ79+4ISqWi50ZOwlLO3lT2shzIA4NxYP9ubmW/YGEmIiN7X5z9TmSca7eEDfKu7lIc+XgFd3GZnb0V7iLzerA9sZSzt0ShdINUZN8OGHu06jqhqm/rt/5Z7fqRfU4/OTuHB/r6ljoEeAXD00NqMQ/epGtES2szt3Jn23gJvTHWLwItrc1o0jX2aq87m+LZ8NCrZv33J4bxB0aAt5J0FEemblSqBjCMv11pE0uUSgUmTIwFw/hbDfQSsRRCkQiK6kqLN6ntoVI1IDIyCnJ5EG+8yMiJZp+uHKFVo0SbtsnutIklWlUNPH1C4S6WWe3HXSyDq7sUNcVnewzOPVErSxEclQxPn9E99lVa44HEWBUSYlQOz29Lvd3RptX3a9oGAOQ+hk8lN6soP98dh2+v/P7y1wCAp1PXcMHaS+iNVfev5x5fqvgFcmkgMqYt4d7H5vZPFB7p0/hsaoi9YBirb6mDt5jBuADHrSjl8iDDjdj62j4HNEuOv/4Cdi5Mtvg/e3cR/Hz2JwDAwxmPQyKWAjAE5EcWL+ce2+LSxTw0q1VIm5MOudxyEegWjZqX1wcMq3l2F4+ltgzjb7G/G8VXIXB1QdqcdO65xKRUhIweg/yL53p10Yqal4GsL44h64tjiJqXYfZ60fkD8PD0Q2LGRu45mTwSSRmv2DXOtZ/3Guab/jI8xIzFNm0aFTra1BDJArjnTHfNsNh7AIGRCRb7Ksk/itbmOkxJWw2ZPLLbuZ2+JEO7fiSmRzd1285eazfPgG+gCPiGcfIAABjESURBVL/8s9qh/VoyfVITWrQC1FpZ0cdnr0T2wZPI+GgvvEJ63kLqrPpleyW780YuDQRgeXslu/PGdZQrAPNtk2wfLa3N3EodMN85s2JmDrf1kmV8A9eU8bZPoHfbK01zzpfy83g7P9hdIh5C81VGQ0Mddu/c3qcVdV+YblO0tr2yqKiQ9zP11A/L+Eao6e+hoaEO165eRlxcglnap6ftk6Z9WdrSmpiUinuTH7S61dUYu+3ull6PX3Z9gMLD+8zasDtf3ISeACxvr5x431KLWyW76wcw32LJ7owRCAwBq77iMrSqGvgETzBL+5i2NZ2XtXy/pS2W+zdfQLBfm9nRB7Zid9gIXLrWjG26Tny+NR9nf6jkntu0IwUBoRKz93fqb+PIP4rw1a5rdo+dNbcKz2WWYM+RQKvbQ6PmZWDK0qcBwOrfeTigmrF2yl6WA6FINKjBmhBHYffS5xVK8ezmiXa/nw30Z49V4G9bLvbDDC2LCNbhgw0FUGsFSF8f123b+Vt2QBoSNqwDPX0zlpBhLDdfhn3H5ZgV34Bt668M9nRs9mbONUhEndiyp/t0TNS8DEhDwqCuKB22QR5wgl03hJC+YdMeGakKJMZa3o8+lGTNrYKfrKPbdFPQ3VORvG4TXIUiVJzLdeg25TsRpW4IIcTJUeqGEEKcHAV6QghxchToCSHEyVGgJ4QQJ0eBnhBCnBwFekIIcXIU6AkhxMnRF6YIIViXdRMZqQqzLyHN37ID3mMjUXDwHwDQ72X5bBkva24VnlxUgf/YOm7If7lrqBhWgd5RpQRtYVoP1Zbz24ernkoJki49lRLsjay5VchMq8aeI4FmgVOrrIM0JAw6ZR0A4JZe36sxxk1msPz5KVxNWQA49V2Z2fk4toy3+9sgLJxZiy1rrvb6MLbhhlI3/YA9uvifJ4/ilU1r8N47G6Fr1fCOByZkKEiMVWHV4jLk5stsLhCu/VcQtsdjq2LQptXjyfsP4cn7D+Har/WYPjsE85eO7/G9lsZ7/v3xaNEKsDazxO65DEcU6PsBW76OPWK3RaNG/sVz8JTKEBoWPsizI6TL2swStGgFePfzns9qV1eV4Za+o1fjvLziBF5ecYJ7fPqHcnTqbyNiovUCQ92NV1wpxK5vghAepMO6rJu9mtNw0m9n3Rif+27pPPrRPmPwl7kvQ+wuttiGPY/+Zl0xAHBnzpueWw8Af5i8COlTM3njs7VjTccx1Zvz6AFDvdKU1HkALJ+NbioxKRUpqfN4Z6wPFuMz9a2dR3/mzAkwjJwrFGIp9WR6Nr+ln439uVnG/Zimt0wZ99fTefXsWAkJKfjyy11Im5POtTUtdG4r03PdLZ1HP376ozh9YBPi56zm2tVXXMaxnaus9mN6Fj0rYcGLCIt5gHtsXILQ9DVjlkoHmhYusXQWPXtE8b7jcptX86bmLx2P2Q+HI/doOeLuDeRSMzVlLbzAbmr6/cF4bFUsVPWt3bbryf7NFyAVdeLpN6ItVsli6w70532FO4HDc/RsgBa7eWLjl+tQ3lACL6E3liSuwPWaQjTpGrmiI3k3z3JBdsXMHDyVshqMxJdX3HtG5H0oUlzD8o8zuKCdOePfucIi94Qn4aG4R6wWBS9vKEHO7mwAjsvRh4weA4bxx8cfvg2FogrZy3IMVaYsFLBmMYzcrHD1QGODpdBDzM1dIpYibW46ykpv8M7XT0mdh4aGOrz3jqHCUlb2SqTNScfOT9/n5dRf2bQGQNc9CQBc8I2OjkNoWCTXhn3fwxmPY/fO7SgouICCggs95ujZi49SWYvtWw19sRcQhpHzCqR4CIXIXPIMLuXnYfvWN7h5JSal2nWBZYuFdLSpcfDddLRqlJDJIzEx6XGc2vdXrp2b0BOzMt9B6aXvcXjbEi6HHpWYicLcPVw/NcVncXiboaJaVGImps1/HgC4YB+VaFio/O8rybzxEzM24tjOVThz6DWcOfRajzl69qLSpm3i+mLfA4D3nhkxKri53O5zvVWBy0ikLhqLa7/W4/l/O8qdUb928wxsWX/a4nv8AsUQuIyEurFvNWXPXvZCRqoC/j7tDi+H6EwcHujZkoCfntzOrbqbdI3Y+sNmrk1KVBoaNUrsO/cZ99y+c59hrF8EYkKm8AK2cbWo8oYS1DRVQuLhydWDZSS+AABlS72jfxSrTFe3eedPYd6CRxEeMd5ioI+OjsOEibG9qp/qyJqxKbPnwVMqw+FDf+fm2aJR44u9n5i1NV0FG5cFjJkcD6GHGF/u+xv3ekHBBcRPTUJk5EQuoLKBnNWiUaOqshyRkVF21a29Z/pMAMCR7/Zzz+WeOo7IyIkICh4NiVjK68t4pa9U1qKzQw+Gkds0FmtK2p8N4+zfxFV3UimKeEGeZbxaZkv9SZkwAMD4exajo02Ni8c/5NqX5B/F2MlzEBgxnQv0pkFbpShCc0OZ3XVrx8Q+CFd3KXL3b+KeK7tyHJFTFyEwMoE3TlhAK5RNrjhzqe83M6/9Ws8F9a92XcOUewPhHyLBuMmMWd3YcZMZJKaFolN/G6d/KO/TuIoGN7i53MaMGMvHK+ft3I68ndv7NIYzcHig95X4oVGjxPWaQouvszVdb9YV81bVTbpG3Kwr5op62yr3t5NIvGsWnkpZjadSVltd2TuSaUHq7oIJe2O2s0PPC1S2cuQ52jKZD5rVKpSV3uixrUrVwHtsHPQZRg4PoRBPPPUXs/c1NNTxAq+l0outOp3d87b0aamo6AoSElJ4Fw3TT03s/RJ7eIgZuIu80NxQ1mOB7c7OdmibFNxjlaIIX77zEPdYJAuAxDsEC9eY/+3btF21Wq2V/2tprLBr7lImDG5CT6Q9scPstZbGCt5FQ86029V3d5QK/t9U3dgGma8HZL7uZm0fWxUDGeOOU9+V8coNkv5zx2+vbNI14oW9hrz5hodeRfrUTKRPzbQ79+4ISqWC95hNOQhcXXiraGdgy3bR7GU5kAcG48D+3dzKfsHCTERGOq44+53AONduCRvkXd2lOPLxCu7iMjt7K9xFXnaPZylnb4lC6QapqNPu/m3VquuEqp6fmmFrx177td5hpQfb9SP7nH5ydg4P9PUtdQjwCoanh9RiHrxJ14iW1mZu5c628RJ6Y6xfBFpam9Gka7RrVc9iUzwbHnrVrP/+xDD+wAjwVpISsRQPZzzOBXl7UzYsR6ZuVKoGMIy/XWkTS5RKBSZMjAXD+FsN9BKxFEKRqFfpKlMqVQMiI6MglwfxxouMnGj26coRWjVKtGmb7E6bWKJV1cDTJxTuYpnVftzFMri6S1FTfLbH4NwTtbIUwVHJ8PQZ3WNfpTUeSIxVISFG5fD8ttTbHW1aPS9ts3bzDC7IW8vd20vuY/hUcrOK8vPdcfj2yu8vfw0AeDp1DResvYTeWHX/eu7xpYpfIJcGImPaEu59bG7/ROGRPo3PpobYC4ax+pY6eIsZjAtw3IqSTc0o62t5AS39kaVcPrwvge746y9g58Jki/+zdxfBz2d/AgDefn6JWIpHFi+3a3//pYt5aFarkDYnHXJ5kMU2LRo1L68PGFbz7C4eS20Zxt9ifzeKr0Lg6oK0Oencc4lJqQgZPQb5F8/16qIVNS8DWV8cQ9YXxxA1L8Ps9aLzB+Dh6YfEjI3cczJ5JJIyXrFrnGs/7zXMN/1leIgZi23aNCp0tKkhkgVwz5nummGx9wACIxMs9lWSfxStzXWYkrYaMnlkt3M7fUmGdv1ITI9u6radvdZungHfQBF++Wc199zjaydj/N2+Dg3yADB9UhNatALUWlnRx2evRPbBk8j4aC+8QnreQuqs+mV7JbvzRi4NBGB5eyW788Z1lCsA822TbB8trc3cSh0w3zmzYmYOt/WSZXwD15Txtk+gd9srTXPOl/LzeDs/TLcUGmtoqMPundv7tKLuC9Ntita2VxYVFfJ+pp76YRnfCGX78hAaVlsNDXW4dvUy4uISzNI+PW2fNO3L0pbWxKRU3Jv8oE0XV3bb3S29Hr/s+sBi4Wh254ub0BOA5e2VE+9banGrZHf9AOZbLNmdMQKBIWDVV1yGVlUDn+AJZmkf07am87KW77e0xXL/5gsI9mvr9TdM2R02ApeuNWObrhOfb83n8u/sVkp3oXkCoVN/G0f+UYSvdl2ze+ysuVV4LrMEe44EWt0eGjUvA1OWPg0AVv/OwwHVjLVT9rIcCEWiQQ3WhDgKu5c+r1CKZzdPtPv9bKA/e6zCYTl3W0QE6/DBhgKotQKkr4/rtu38LTsgDQkb1oGevhlLyDCWmy/DvuNyzIpvwLb1VwZ7OjZ7M+caJKJObNnTfTomal4GpCFhUFeUDtsgDzjBrhtCSN+waY+MVAUSYy3vRx9KsuZWwU/W0W26KejuqUhetwmuQhEqzuU6dJvynYhSN4QQ4uQodUMIIU6OAj0hhDg5CvSEEOLkKNATQoiTo0BPCCFOjgI9IYQ4OQr0hBDi5OgLU4QQrMu6iYxUhdmXkOZv2QHvsZEoOPgPAOj3sny2jJc1twpPLqrAf2wdN+S/3DVUDKtA76hSgj2xdEDXYB9mNpT1VEqQdOmplGBvZM2tQmZaNfYcCTQLnFplHaQhYdAp6wAAt/T6Xo2xdvMMjL/bl3ts7TAzW8bb/W0QFs6sxZY1V3t9GNtwM6wC/UBp0aixfesb3GM2kGVlr6RgT4aUxFgVVi0uQ26+zOYC4dp/BWF7mB5NvHbzDKT90XCMck8nV1oa7/n3x+ODDQVYm1lCgd4GlKMfAC0aNfIvnoOnVIbQsPDBng4hnLWZJWjRCvDu5z2f1a6uKsMtfYdDxj39Qzk69bcRMdF6gaHuxiuuFGLXN0EID9JhXdZNh8zJmfXbWTfG575bOo9+tM8Y/GXuyxC7iy22Yc+jv1lXDADcmfOm59YDwB8mL0L61Eze+GztWNNxTPXmPHrAUK+UPXPe0tnophKTUpGQkNJj+b2BYHymvrXz6M+cOQGGkXOFQiyVDjQ9m9/4/HiW6dn8xv1ER8dh3oJH4SJwsThP4/56Oq+eHSshIQVffrkLaXPSubamhc5tZXquu6Xz6MdPfxSnD2xC/JzVXLv6iss4tnOV1X5Mz6JnJSx4EWExD3CPjUsQmr5mzFLpQNPCJZbOomePKN53XG7zat7U/KXjMfvhcOQeLUfcvYGQMYYasTVlLXh5xQmr72PPqM87WdWn4433b74AqagTT78RbbFKFlt3oD/vK9wJHJ66YQO02M0TG79ch/KGEngJvbEkcQWu1xSiSdfIFR3Ju3mWC7IrZubgqZTVYCS+vOLeMyLvQ5HiGpZ/nMEF7cwZ/84VFrknPAkPxT1itSh4eUMJcnZnA3Bcjj5k9BgwjD8+/vBtKBRVyF6WY6gyZaGANWAIngkJKSgqKhzUIM8GS6GHmJu7RCxF2tx0lJXe4KWUUlLnoaGhDu+9Y6iwlJW9Emlz0rHz0/d5OfVXNq0BAC5oA+CCb3R0HELDIrk27Psezngcu3duR0HBBRQUXOgxR89efJTKWmzfauiLvYAwjJxXIMVDKETmkmdwKT8P27e+wc0rMSnV7CLUHbZYSEebGgffTUerRgmZPBITkx7HqX1/5dq5CT0xK/MdlF76Hoe3LeFy6P+/vbMPiqO84/i3aYB75ThY4HhLMHImHi3BABECHQzoCA55sZy2DkGJo5MOOhFpm0zMWJPxZabUotPRVG1GQc04k4BpbDoSC2kyDQ1JQAMJlBYMb0GOY++NO+6OQJ3+cbPL7d0esLnVmvP5zPDHPvvs8zw3zPz2t9/nt/vV5Vegr/0IO87EYAdOvulxVNPlV2Dj1r0AwAZ7Xb4nUfnoxULO/Pn6A2hteBrnT7yM8ydeXlKjZ24q7hkrOxZzDQDONZsyLIgI+zpov9WVYStQ/OAa9H8xhb2PnGK/UV9btymgm1Tpz+6AyzmPC6eDMwfvuBIFfbEB8TGzotshhhKiB3rGEvC9s4fYrNvqNOONv9WxfYp0JTA7aDRd/JBta7r4IdbEpSEjJYsTsL3dokZNQ5iwXodSGsn6wVJKzwYPbZ8S+6cExDe77bx0DmXbfo7b09axbb4ZqMlkxOnWk4LnEtMztujeMtbekFmn3WHDsaPv+vX1zYK9bQEzMrMhkyrwcdP77PmrVz9Hdk4BtNp0NqAygZzB7rBh/PootFqdIN/au3PvAQC0fNrMtrWfa4NWm46k5FVQKlScsbwzfZqexPyNOVCUZllzMWSVPOOZp/kg6+5kMQxwgjyDd7bMWP2pqFQAwLq7H8YNtw2X295m+w91n8KazFIkpuWygd43aFsMA5g2jQj2rb1t/f0Il6jQ3nyQbRvpbYM250EkavM486QmuEBbw3G+J3iN29si8JPGfmT9JBHxKUqszaRY31jvDVlmM9bbU/ZmMJgiEBH2NTZl8H9eubPhEDobDgU1RyggeqCPVcbB7KDx74k+3vOMp+s14yAnq7Y6zbhmHGRNvZdL+3/OIv+OzdhVVINdRTUBM3sx8TWk5gsmvhuy27ZX4Kln9gv2kBXzO9pqdQymbRaMDH+5ZF+LxcQ59g76FKWBVCbDk7t+5XedyWTkBF4+60WX0yl43XxPSwMDvcjLK+LcNObm5zgm7QbDOF793X5B80kVFCTyKEybRpY02J6fn8WM1cAeWwwD+Pj3W9hjuToByugUbH+22e9a98yCV2sg+z+7eUzQ2lVUKiJkkSh58rDfObt5jHPT0FCzgsZeDNrA/Z/azG6oY6VQx0rYNu/snsn609KjRfWQJfBzy1fdWJ1mPHfUo5vv2/ISynMqUJ5TIVh7FwOaNgQ8d7r1JJKSVyE7pyAos/DvCnyavS9VO3dDk5iM480fsL952/YKaLXimbPfCnhr7XwwQT5cokLLn55gby73Vr0BiTxK8Hx8mj0fBjoCKvm84PGXi8s5D8uUm/fcJ439SEuPRupaNXLvS2b9ZW+G2bkVQctPoY7ogX7KbkRCVDIipSpeHdzqNMPummYzd6ZPlCwaa+LSYHdNw+o0C8rqGRiJZ9+Wl/zG/yahqHjgB+BkkoHwzZSXQkzpxmIxgaLiBckmfNC0AXemrwdFxQcM9EqFCjK5HIavrgd9Y7NYTNBqddBokjjzabXpfk9XYuBy0HDPWAXLJnzMWCYQGbMaEoU64DgShRrhEhUmBjuWDM5LYaOHkawrRGTMqiXHGp6QIn+9BXkZFtH1bVW0BO6ZuSWlmcVuBstBE+N5Krk2TvT5xRC9vPKzK38BAPyi+Fk2WEfJovH0fXvY456xLmhUidBv3MFex2j7p/tagpqfkYaYG4Y3U3YjohUU1iaIl1FqNEmejdipyUUDWvlDj0EmVeBCxxlB47e98hwathfy/gmtImDm/qn+USgVKgCegPzQw4+zx8uh53Inpm0WlJSWQ6NJ4u1jd9g4uj7gyeaZKh6+vhQVzzvel4P/wsrwMJSUlrNt+QXFSFl1G7ovX7ypm5auTI/KY62oPNYKXZne7/zApeOQRsYhX3+AbVNrtCjQvyhonv4LRz3rLX8BUgXF28ftsOCG2wa5OoFt862aYWD2ABK1ebxjDXWfgmvaiKySGqg12kXX9s8eNWbnViD3R9ZF+wmltm4TYhPl6PrHVwH7PFqbiXV3xaL30mRQOn3uj62wz6zEZICMPruqGlV/Pgv9O0cRlbJ0CWmoInpGP2oawm+aa7Gn7ADqK94BsFA6yQTev14+Dto+hZ2F1ZyyyVdO7OeUTS6HJ+7ZzY7B4L2B683hM39ArDKO1fMB4eWVABATE4eaXy4EgJ7uTk7lB1/Z4NjokGCtWGwMhnG8/cc6VFZVs+tnyiuFBEu7w4YPGg6hsqraT6f33ght+bQZOyoX5jKZjGg/14YNG/yDVPOxRr/xmLGuXv0cND2JHZXVeP6F19h1e0tCQpFRcfhhWFjANz1HetswbRrF5op6PPL8WQALkogQLIYB/P1ILTZX1HN0eu8SS5eDxpUz72Hj1r3sXFNjVzDc8xliku/0G6+r5XVOX2+pxuWg0dZYg+LHXvfT6X1LLNu71bhulCBbZwvaK7agdDUKSlcDANzOebz/2hesHLM2k8Lje7PY0kumz7t1XUFJNpUPjOP2JCeOtCQGfCJx0kb8d24OUnU0EtdnwTomLL6ECsQzViBVO3dDJpeTN1wJIQFTS9/Zp8JTdemCr2c2VTtax4KqhxdKWrITb+27CtvMSpTv2bBo3631h6FKSUVX41voO9n0La3wuwV5M5ZA+B7T3q1GU5sGm7NNeHNP7/97Ocvmt7v7oZTPo/7I4nKMrkwPVUoqbGPD39sgD4RA1Q2BQAgO5q1YfbEhaAnn26DygXHEqW8s+kGzpLtyUPjrgwiXyTF2sV3UMuVbESLdEAgEQohDpBsCgUAIcUigJxAIhBBHVI3ePi3sZSACgUAgfPOQjJ5AIBBCHBLoCQQCIcQhgZ5AIBBCHBLoCQQCIcT5H4vuDqXsRmpBAAAAAElFTkSuQmCC;" vertex="1" parent="WIyWlLk6GJQsqaUBKTNV-1">
          <mxGeometry x="700" y="90" width="260" height="429.21" as="geometry" />
        </mxCell>
      </root>
    </mxGraphModel>
  </diagram>
</mxfile>
